<?xml version="1.0" encoding="utf-8"?>
<!-- Generator: Adobe Illustrator 16.0.4, SVG Export Plug-In . SVG Version: 6.00 Build 0)  -->
<!DOCTYPE svg PUBLIC "-//W3C//DTD SVG 1.1//EN" "http://www.w3.org/Graphics/SVG/1.1/DTD/svg11.dtd">
<svg version="1.1" id="Layer_1" xmlns="http://www.w3.org/2000/svg" xmlns:xlink="http://www.w3.org/1999/xlink" x="0px" y="0px"
	 width="1325.735px" height="1313.737px" viewBox="0 0 1325.735 1313.737" enable-background="new 0 0 1325.735 1313.737"
	 xml:space="preserve">
<path fill="#CCCCCC" d="M1256.753,413.827c-32.125-75.953-78.107-144.157-136.669-202.72
	c-58.564-58.563-126.769-104.545-202.722-136.671C838.71,41.168,755.18,24.301,669.094,24.301
	c-86.087,0-169.617,16.868-248.269,50.135c-75.953,32.125-144.157,78.107-202.72,136.671
	c-58.563,58.563-104.545,126.768-136.671,202.72c-33.267,78.652-50.134,162.182-50.134,248.269s16.867,169.616,50.134,248.27
	c32.126,75.952,78.108,144.157,136.671,202.72c58.563,58.563,126.767,104.546,202.72,136.671
	c78.652,33.267,162.182,50.135,248.269,50.135c86.086,0,169.616-16.868,248.269-50.135
	c75.953-32.125,144.157-78.107,202.722-136.671c58.562-58.562,104.544-126.768,136.669-202.72
	c33.268-78.653,50.136-162.183,50.136-248.27S1290.021,492.479,1256.753,413.827z M1021.491,1108.334
	c2.82-21.243,3.05-44.845,0.547-71.044c-15.528-163.604-110.203-302.403-246.771-347.021
	c63.328-38.486,108.373-114.164,113.766-200.945c3.616-62.841-15.152-119.543-52.664-160.51
	c-37.183-40.971-93.109-66.205-156.188-66.215c-63.079,0.01-119.005,25.245-156.187,66.215
	c-37.514,40.967-56.281,97.669-52.664,160.51c5.392,86.781,50.437,162.459,113.764,200.945
	C448.526,734.887,353.85,873.686,338.321,1037.29c-3.277,34.314-1.878,64.179,3.906,90.115
	C195.976,1024.363,100.25,854.201,100.25,662.096c0-313.662,255.183-568.845,568.845-568.845
	c313.661,0,568.845,255.183,568.845,568.845C1237.939,842.785,1153.252,1004.061,1021.491,1108.334z"/>
</svg>
