<svg fill="none" xmlns="http://www.w3.org/2000/svg" viewBox="0 0 145 130" aria-hidden="true" role="img"><path fill-rule="evenodd" clip-rule="evenodd" d="M72.999 0c35.899 0 65 29.101 65 65s-29.101 65-65 65C37.101 130 8 100.899 8 65S37.101 0 72.999 0" fill="var(--illustration-color-1, #d5e0d5)"></path><path fill-rule="evenodd" clip-rule="evenodd" d="M33.513 101.043l49.713-76.744 31.993 9.82-6.379 68.342-75.327-1.418z" fill="var(--illustration-color-2, #14a800)"></path><path fill-rule="evenodd" clip-rule="evenodd" d="M70.873 93.147c20.97 0 37.967 4.26 37.967 9.517 0 5.255-16.998 9.517-37.967 9.517-20.969 0-37.967-4.262-37.967-9.517 0-5.257 16.998-9.517 37.967-9.517" fill="var(--illustration-color-5, #00c217)"></path><path fill-rule="evenodd" clip-rule="evenodd" d="M58.926 76.846l36.246-10.024 5.974 21.768c.101.506-.203 1.114-.709 1.215l-34.221 9.618c-.506.102-1.114-.202-1.215-.708l-6.075-21.87z" fill="var(--white, #ffffff)"></path><path fill-rule="evenodd" clip-rule="evenodd" d="M95.78 68.847L59.532 78.871l-.81-2.937c-.1-.506.204-1.113.71-1.215l34.321-9.415c.506-.102 1.115.202 1.215.708l.81 2.835z" fill="var(--illustration-color-1, #d5e0d5)"></path><path fill-rule="evenodd" clip-rule="evenodd" d="M66.114 84.237c-.303 0-.607-.203-.708-.608-.102-.405.1-.81.506-.91l26.425-7.493c.405-.101.81.101.911.506.102.405-.1.81-.506.911l-26.525 7.493-.103.1zm.912 3.341c-.405 0-.81-.304-.81-.709 0-.405.202-.709.608-.81l19.743-5.568c.405-.102.81.1 1.012.506.203.405-.101.81-.506 1.012h-.101l-19.743 5.569h-.203zm.911 3.341c-.304 0-.608-.203-.708-.608-.102-.405.1-.81.506-.911l19.743-5.569c.404-.1.81.102 1.013.507.201.405-.103.81-.507 1.012h-.102L68.14 90.92h-.202z" fill="var(--illustration-color-14, #e4ebe4)"></path><path fill-rule="evenodd" clip-rule="evenodd" d="M65.198 11.947c2.204-6.1 20.275-5.164 40.365 2.092 20.089 7.257 34.588 18.084 32.384 24.184-2.202 6.1-20.274 5.163-40.364-2.093-20.089-7.255-34.588-18.084-32.385-24.184" fill="var(--illustration-color-3, #9aaa97)"></path><path fill-rule="evenodd" clip-rule="evenodd" d="M119.674 27.843c-1.115 2.936-9.416 2.328-18.528-1.114-9.112-3.442-15.794-8.302-14.48-11.643 3.343-9.214 13.468-13.972 22.681-10.631 9.212 3.34 13.972 13.466 10.631 22.679-.101.202-.203.506-.304.709" fill="var(--white, #ffffff)"></path><path fill-rule="evenodd" clip-rule="evenodd" d="M103.475 16.908a2.632 2.632 0 110 5.265 2.633 2.633 0 110-5.265" fill="var(--illustration-color-9, #ff4b25)"></path><path fill-rule="evenodd" clip-rule="evenodd" d="M62.267 75.63a.506.506 0 110 1.014.506.506 0 010-1.013m3.24-.81a.506.506 0 110 1.013.506.506 0 010-1.013m3.138-.911a.506.506 0 110 1.012.506.506 0 010-1.013" fill="var(--white, #ffffff)"></path></svg>