<?xml version="1.0" encoding="UTF-8" standalone="no"?>
<!-- Generator: Adobe Illustrator 16.0.0, SVG Export Plug-In . SVG Version: 6.00 Build 0)  -->

<svg
   xmlns:dc="http://purl.org/dc/elements/1.1/"
   xmlns:cc="http://creativecommons.org/ns#"
   xmlns:rdf="http://www.w3.org/1999/02/22-rdf-syntax-ns#"
   xmlns:svg="http://www.w3.org/2000/svg"
   xmlns="http://www.w3.org/2000/svg"
   xmlns:sodipodi="http://sodipodi.sourceforge.net/DTD/sodipodi-0.dtd"
   xmlns:inkscape="http://www.inkscape.org/namespaces/inkscape"
   version="1.1"
   id="Layer_1"
   x="0px"
   y="0px"
   width="1000"
   height="722.84979"
   viewBox="0 0 1000 722.84979"
   enable-background="new 0 0 700 650.206"
   xml:space="preserve"
   inkscape:version="0.91 r13725"
   sodipodi:docname="Bissell.svg"><metadata
   id="metadata8495"><rdf:RDF><cc:Work
       rdf:about=""><dc:format>image/svg+xml</dc:format><dc:type
         rdf:resource="http://purl.org/dc/dcmitype/StillImage" /><dc:title></dc:title></cc:Work></rdf:RDF></metadata><defs
   id="defs8493" /><sodipodi:namedview
   pagecolor="#ffffff"
   bordercolor="#666666"
   borderopacity="1"
   objecttolerance="10"
   gridtolerance="10"
   guidetolerance="10"
   inkscape:pageopacity="0"
   inkscape:pageshadow="2"
   inkscape:window-width="1366"
   inkscape:window-height="705"
   id="namedview8491"
   showgrid="false"
   inkscape:zoom="0.25665282"
   inkscape:cx="889.08117"
   inkscape:cy="730.92542"
   inkscape:window-x="-8"
   inkscape:window-y="-8"
   inkscape:window-maximized="1"
   inkscape:current-layer="Layer_1"
   fit-margin-top="0"
   fit-margin-left="0"
   fit-margin-right="0"
   fit-margin-bottom="0"
   showguides="false" />

<path
   style="fill:#fe0503;fill-opacity:1"
   d="m 84.6918,722.21561 c -12.919,-2.0868 -19.181,-8.6443 -19.7385,-20.6697 -0.2657,-5.7306 0.5507,-10.8723 2.884,-18.1632 2.3163,-7.238 5.4354,-13.5209 21.0847,-42.4722 7.3657,-13.6267 23.255,-43.1824 35.3096,-65.6794 l 21.9173,-40.9036 164.8343,-0.2809 c 90.65886,-0.1545 235.98734,-0.3965 322.95218,-0.5378 l 158.11788,-0.257 16.50182,30.7923 c 15.70597,29.3071 45.46396,84.4148 53.35058,98.7978 4.32245,7.8829 6.64935,13.1809 8.72814,19.8725 3.35216,10.7907 3.72204,20.5308 1.02755,27.0625 -2.75979,6.6902 -9.63997,11.282 -18.88012,12.6006 -5.10036,0.7278 -763.57113,0.5679 -768.08943,-0.1619 z"
   id="path10022"
   inkscape:connector-curvature="0" /><path
   style="fill:#000000"
   d="m 64.2465,342.5673 c -26.5616,-0.007 -48.1458,0.0615 -52.8478,0.18405 L 0,343.04814 l 0,68.24746 0,68.24677 77.072,-0.23431 c 83.8445,-0.25532 80.5433,-0.15619 89.7276,-2.69627 14.747,-4.07861 23.8451,-12.78811 27.3026,-26.13612 1.1229,-4.33489 1.5732,-13.30313 0.8634,-17.20041 -2.0327,-11.16192 -8.6683,-21.92162 -16.6921,-27.06793 -1.4231,-0.91273 -2.587,-1.72177 -2.587,-1.79774 0,-0.076 0.9708,-1.07504 2.1576,-2.22017 6.1172,-5.90247 9.4565,-16.24768 9.0202,-27.94473 -0.2424,-6.50085 -0.9121,-9.30568 -3.5294,-14.77853 -1.592,-3.329 -2.6314,-4.8143 -5.3627,-7.66636 -2.8201,-2.94463 -4.0498,-3.86713 -7.334,-5.50188 -7.7871,-3.8761 -0.4556,-3.53107 -78.6119,-3.69666 -9.519,-0.0202 -18.9259,-0.0315 -27.7798,-0.034 z m -36.2203,21.23394 58.2484,0.11478 58.2485,0.1141 2.7941,1.37598 c 3.7375,1.8399 6.3114,4.39149 7.9771,7.90746 1.2332,2.60293 1.3584,3.23334 1.3491,6.79025 -0.01,3.38306 -0.1757,4.2958 -1.2138,6.65169 -2.2993,5.21856 -7.1662,8.7338 -13.4163,9.69026 -1.3804,0.21124 -27.5922,0.3884 -58.2485,0.39323 l -55.7386,0.008 0,-16.52261 0,-16.52329 z m 80.4576,53.90902 c 42.9938,0.009 40.6229,0.20403 45.1962,2.73091 7.1494,3.9503 11.6494,13.03402 10.385,20.96296 -0.6366,3.99176 -2.1937,7.22413 -4.9007,10.17314 -2.614,2.84773 -5.9623,4.89413 -9.6556,5.9019 -2.1588,0.58905 -10.0929,0.7112 -61.9792,0.95422 l -59.5033,0.27914 0,-20.50046 0,-20.50113 59.1014,0 c 8.1461,0 15.2143,-0.002 21.3562,-6.9e-4 z"
   id="path10020"
   inkscape:connector-curvature="0" /><path
   style="fill:#000000"
   d="m 212.9151,410.75668 0,-68.24202 14.0131,0 14.01313,0 2.6e-4,29.44839 c 1.4e-4,16.19661 0.12528,46.90552 0.27809,68.24202 l 0.27784,38.79363 -14.29122,0 -14.2912,0 0,-68.24202 z"
   id="path10014"
   inkscape:connector-curvature="0" /><path
   style="fill:#000000"
   d="m 306.82378,478.28433 c -11.91606,-1.56796 -18.8986,-4.16154 -25.18178,-9.35346 -7.39656,-6.11192 -11.83073,-17.19907 -11.83621,-29.59513 l 0,-3.80329 13.9204,0 13.9204,0 0.48292,3.68007 c 0.66364,5.05708 2.33835,8.58263 5.54011,11.66282 2.87419,2.76511 5.79419,4.32181 10.61649,5.65991 3.40736,0.94548 3.5167,0.94765 47.75511,0.94765 41.08413,0 44.53959,-0.0564 47.0589,-0.76796 8.30704,-2.34626 12.90283,-6.98946 14.45636,-14.60557 1.16711,-5.72146 0.48339,-10.84502 -2.02959,-15.21023 -2.32743,-4.04279 -6.27883,-7.01424 -12.00847,-9.03032 -2.19587,-0.77267 -4.70075,-0.80953 -55.00662,-0.80953 -55.65113,0 -54.89393,0.0242 -62.74519,-2.01155 -7.15094,-1.85422 -13.6247,-6.30987 -16.91937,-11.64494 -3.32951,-5.39157 -5.10536,-13.73971 -5.13921,-24.15915 -0.0184,-5.69124 0.10768,-6.96262 0.99255,-10.00274 1.53191,-5.26334 3.75237,-9.04609 7.65115,-13.03438 5.48794,-5.61394 12.63262,-9.46967 22.13671,-11.94641 8.53791,-2.22496 9.58901,-2.25985 62.80769,-2.08517 53.94279,0.17705 52.74733,0.12324 61.62502,2.77384 15.76569,4.70714 22.82105,14.98013 23.77708,34.62085 l 0.26972,5.54195 -14.25353,0 -14.25357,0 -0.27445,-2.93397 c -0.64803,-6.92739 -2.30371,-11.0019 -5.83242,-14.35307 -2.41063,-2.28936 -5.34555,-3.72227 -9.16619,-4.47517 -2.72867,-0.53772 -88.58408,-0.53772 -91.31274,0 -7.83692,1.54437 -13.12697,6.55845 -14.31528,13.56849 -1.12586,6.64166 2.33492,13.71873 8.23928,16.84872 4.79097,2.53977 1.78732,2.41567 58.63434,2.42257 48.27447,0.006 52.36793,0.0632 56.04086,0.78447 16.73808,3.28706 26.29321,11.6454 29.98234,26.22705 0.94113,3.71996 1.09239,5.24423 1.13752,11.46244 0.0406,5.58672 -0.11909,7.94055 -0.72228,10.64923 -2.41075,10.8258 -7.58443,18.70884 -16.03549,24.43299 -5.38772,3.64926 -10.52091,5.76093 -18.53359,7.62425 -3.92794,0.9134 -4.5881,0.925 -57.09813,1.00198 -29.21834,0.043 -53.68897,0.004 -54.37916,-0.0872 z"
   id="path10012"
   inkscape:connector-curvature="0" /><path
   style="fill:#000000"
   d="m 502.37963,477.91452 c -7.86687,-1.13673 -14.2107,-3.33295 -19.32841,-6.69154 -3.4747,-2.28028 -8.15549,-7.37231 -10.08604,-10.97219 -2.95475,-5.50952 -4.87835,-13.91872 -4.88379,-21.34971 l -0.004,-3.36863 13.94792,0 13.94792,0 0.48326,3.5508 c 1.2378,9.09501 6.26461,14.6094 15.90081,17.44314 3.16934,0.93204 3.57313,0.94139 46.22032,1.07253 47.99777,0.14761 47.90461,0.15226 53.60456,-2.68213 4.12503,-2.05126 6.18491,-4.07009 7.93864,-7.78059 1.83459,-3.88154 2.46397,-7.29785 2.1945,-11.91219 -0.47009,-8.05041 -5.11052,-13.85834 -13.55159,-16.96111 l -3.27266,-1.20361 -48.5749,0.14287 c -32.51418,0.0956 -50.63231,-0.0148 -54.79747,-0.33404 -12.57024,-0.96343 -20.11154,-3.72017 -25.51131,-9.32569 -6.26574,-6.50451 -8.8019,-15.41909 -8.44526,-29.68489 0.15118,-6.04646 0.30378,-7.25567 1.26968,-10.06056 1.5908,-4.61943 3.46089,-7.65504 7.01332,-11.38425 6.898,-7.24125 18.30453,-12.29547 31.37259,-13.90114 2.80015,-0.34405 18.61441,-0.44197 53.54257,-0.33152 44.94153,0.14212 49.97173,0.22808 53.88645,0.92084 16.77317,2.96825 25.59179,9.57792 29.52119,22.12641 1.32413,4.22856 2.34412,11.25019 2.34412,16.13676 l 0,3.74751 -14.17309,0 -14.1731,0 -0.29281,-3.2467 c -0.97117,-10.76934 -5.70078,-16.72958 -14.63757,-18.44625 -1.68642,-0.32395 -16.38285,-0.47484 -46.24982,-0.47484 -42.41587,0 -43.87972,0.0271 -47.05061,0.86976 -5.58482,1.48423 -9.37509,4.48705 -11.43974,9.06317 -0.96812,2.1457 -1.10708,3.0025 -1.10315,6.80158 0.004,3.9142 0.1211,4.57755 1.17648,6.66781 2.33826,4.63105 5.74997,7.44784 10.98107,9.06624 2.30974,0.7146 6.03797,0.76735 54.76614,0.77496 57.45811,0.009 54.51678,-0.11502 63.02583,2.65693 15.07896,4.91219 23.20505,16.20827 24.04734,33.42823 0.43491,8.89133 -0.76616,15.63024 -4.02845,22.60245 -5.4129,11.56867 -15.87164,19.08647 -31.25911,22.46918 l -4.51757,0.99317 -52.91511,0.0757 c -41.8861,0.0599 -53.74339,-0.0439 -56.88897,-0.49847 z"
   id="path10010"
   inkscape:connector-curvature="0" /><path
   style="fill:#000000"
   d="m 706.92895,477.82733 c -11.72352,-1.3046 -22.06246,-5.93593 -28.3515,-12.70006 -11.68759,-12.5704 -13.23505,-34.70716 -3.61809,-51.75777 1.72461,-3.05773 5.86562,-7.81516 7.99005,-9.17951 l 1.46079,-0.93812 -2.17705,-1.23709 c -6.58887,-3.74408 -11.31015,-10.97541 -13.16444,-20.16316 -0.86948,-4.30818 -1.00087,-12.97087 -0.25048,-16.51717 2.14229,-10.12483 9.3912,-17.48274 20.95861,-21.27376 7.52365,-2.46574 5.70483,-2.41 78.74697,-2.41279 l 67.24193,-0.002 0,10.4319 0,10.4319 -59.75999,0 c -38.39319,0 -60.55466,0.1566 -61.98254,0.43799 -6.84985,1.34985 -12.05096,6.49195 -13.37104,13.21922 -1.67441,8.53335 3.6547,16.79025 12.35679,19.14551 2.15366,0.58291 9.62306,0.6663 59.68117,0.6663 l 57.21939,0 0,10.4319 0,10.4319 -55.73864,0.006 c -60.60529,0.007 -58.38256,-0.0781 -63.12246,2.41769 -4.57596,2.4095 -8.86167,7.86698 -10.19383,12.98098 -1.09926,4.2197 -0.71404,9.7138 0.93658,13.35822 2.39657,5.29146 6.9696,9.24041 12.56911,10.85383 2.66554,0.76805 5.6226,0.80648 62.04995,0.80648 l 59.25094,0 0.26145,1.35832 c 0.1438,0.74705 0.26142,5.4414 0.26142,10.4319 l 0,9.07358 -63.89552,-0.0696 c -35.14253,-0.0382 -64.55434,-0.14287 -65.35957,-0.2325 z"
   id="path10008"
   inkscape:connector-curvature="0" /><path
   style="fill:#000000"
   d="m 852.77558,450.02197 c -0.15277,-15.4591 -0.27779,-58.68629 -0.27779,-96.06044 l 0,-67.953 13.94801,0 13.94804,0 0.2727,6.19394 c 0.14995,3.40667 0.27336,46.63386 0.2742,96.06042 l 0,89.86649 -13.94446,0 -13.94446,0 -0.27778,-28.10741 z"
   id="path10006"
   inkscape:connector-curvature="0" /><path
   style="fill:#000000"
   d="m 900.04426,410.24989 c -0.15313,-37.33373 -0.27842,-80.56092 -0.27842,-96.06042 l 0,-28.18094 13.94452,0 13.94456,0 0.27732,25.75376 c 0.15253,14.16456 0.27748,57.39175 0.27772,96.06042 l 0,70.30667 -13.94383,0 -13.94382,0 -0.27842,-67.87949 z"
   id="path10004"
   inkscape:connector-curvature="0" /><path
   style="fill:#000000"
   d="m 975.33149,285.22784 c -2.60561,0.004 -5.15521,0.34067 -7.38235,1.03232 -7.20853,2.23865 -12.31977,7.46234 -14.92616,15.25394 -0.99405,2.97147 -1.13724,4.06262 -1.13724,8.61786 10e-4,5.7924 0.37677,7.61563 2.53919,12.32676 2.68968,5.85979 8.17625,10.35553 14.6118,11.9736 3.26027,0.81974 9.76663,0.8392 13.034,0.0387 5.53784,-1.35675 10.48892,-4.8529 13.61115,-9.61148 8.22412,-12.53418 4.24978,-30.68642 -8.0961,-36.97959 -3.41431,-1.74042 -7.91152,-2.65871 -12.25429,-2.65212 z m -0.20848,6.49752 c 1.11894,-0.026 2.26378,0.046 3.42616,0.22005 9.26925,1.38761 14.91635,8.2029 14.91635,18.0025 0,9.01802 -4.84272,15.87663 -12.75819,18.06838 -2.98151,0.82557 -7.89167,0.69983 -10.8353,-0.2771 -7.69139,-2.55262 -11.90215,-9.45242 -11.44968,-18.7618 0.25888,-5.32652 1.35941,-8.2942 4.30064,-11.5953 3.18936,-3.57965 7.55124,-5.54385 12.40002,-5.65673 z"
   id="path10002"
   inkscape:connector-curvature="0" /><path
   style="fill:#000000"
   d="m 964.60273,296.87476 0,13.47454 0,13.47453 3.13726,0 3.13726,0 0,-5.23972 0,-5.23972 1.95558,0.13244 1.95621,0.13243 2.68298,5.10729 2.68302,5.10728 3.56276,0 c 4.18388,0 4.14761,0.61479 0.37255,-6.31619 l -2.66277,-4.88927 1.59413,-0.26487 c 2.03258,-0.33774 3.9747,-2.03201 4.60523,-4.01724 0.27079,-0.85255 0.41583,-2.79991 0.32223,-4.3276 -0.20373,-3.32411 -1.0647,-4.75944 -3.69478,-6.15591 -1.73959,-0.92365 -2.33703,-0.97799 -10.74706,-0.97799 l -8.9046,0 z m 6.27452,5.21595 4.21046,0 c 4.0024,0 5.64074,0.3817 6.34513,1.47785 0.59425,0.92484 0.31104,2.74302 -0.55427,3.55676 -0.71801,0.6752 -1.69174,0.85155 -5.43792,0.98478 l -4.5634,0.16232 0,-3.09085 0,-3.09086 z"
   id="path9998"
   inkscape:connector-curvature="0" /><path
   style="fill:#000000"
   d="m 212.9151,308.82832 0,-21.95046 14.0131,0 14.01313,0 0,21.95046 0,21.95045 -14.01313,0 -14.0131,0 0,-21.95045 z"
   id="path9994"
   inkscape:connector-curvature="0" /><path
   style="fill:#fe0503;fill-opacity:1"
   d="m 268.31752,287.85585 c 0.79833,-2.19936 86.6496,-167.14538 107.84296,-207.198615 18.07631,-34.16231 24.28097,-44.9799 31.42852,-54.79423 3.11346,-4.27511 8.80796,-10.47164 12.20449,-13.28041 7.69168,-6.3606502 17.38313,-10.3610702 28.90202,-11.93012024 6.43348,-0.87634 21.50186,-0.86842 28.04175,0.0147 14.17577,1.91434004 24.811,7.00787004 34.28648,16.42081024 9.2299,9.16896 15.90072,19.67992 34.53453,54.41455 22.38828,41.733205 114.10264,215.916055 114.10264,216.702395 0,0.25835 -72.88574,0.41154 -195.80976,0.41154 -186.3118,0 -195.79637,-0.0369 -195.53363,-0.76066 z"
   id="path9990"
   inkscape:connector-curvature="0" /></svg>