<?xml version="1.0" encoding="UTF-8"?>
<svg width="117px" height="40px" viewBox="0 0 117 40" version="1.1" xmlns="http://www.w3.org/2000/svg" xmlns:xlink="http://www.w3.org/1999/xlink">
    <!-- Generator: Sketch 60 (88103) - https://sketch.com -->
    <title>logo-clearlyrated</title>
    <desc>Created with Sketch.</desc>
    <g id="Design-R5" stroke="none" stroke-width="1" fill="none" fillRule="evenodd">
        <g id="Toggle-R5-(XL)-&gt;1200---Desktop" transform="translate(-1567.000000, -2788.000000)" fillRule="nonzero">
            <g id="Page-Bottom" transform="translate(0.000000, 2140.000000)">
                <g id="Case-Studies" transform="translate(730.000000, 583.000000)">
                    <g id="Rating" transform="translate(186.000000, 65.000000)">
                        <g id="logo-clearlyrated" transform="translate(651.000000, 0.000000)">
                            <g id="Group" transform="translate(0.000000, 17.959184)" fill="#1D4354">
                                <g>
                                    <path d="M8.36734694,7.63265306 C7.91836735,7.2244898 7.46938776,6.89795918 6.97959184,6.69387755 C6.53061224,6.48979592 6,6.36734694 5.34693878,6.36734694 C4.85714286,6.36734694 4.40816327,6.48979592 3.95918367,6.69387755 C3.55102041,6.89795918 3.18367347,7.2244898 2.85714286,7.63265306 C2.53061224,8.04081633 2.28571429,8.57142857 2.12244898,9.18367347 C1.95918367,9.79591837 1.87755102,10.4897959 1.87755102,11.2653061 C1.87755102,12.8163265 2.20408163,14.0408163 2.81632653,14.9795918 C3.42857143,15.877551 4.28571429,16.3673469 5.42857143,16.3673469 C6.04081633,16.3673469 6.57142857,16.244898 7.02040816,16 C7.46938776,15.755102 7.91836735,15.4285714 8.32653061,15.0204082 L9.3877551,16.1632653 C8.85714286,16.6938776 8.28571429,17.1020408 7.63265306,17.4285714 C6.97959184,17.7142857 6.24489796,17.877551 5.34693878,17.877551 C4.65306122,17.877551 4,17.755102 3.3877551,17.4693878 C2.73469388,17.2244898 2.20408163,16.8163265 1.71428571,16.2857143 C1.2244898,15.755102 0.816326531,15.1020408 0.530612245,14.2857143 C0.244897959,13.4693878 0.0816326531,12.5306122 0.0816326531,11.4285714 C0.0816326531,10.2857143 0.244897959,9.26530612 0.571428571,8.44897959 C0.897959184,7.63265306 1.30612245,6.93877551 1.79591837,6.40816327 C2.28571429,5.87755102 2.89795918,5.46938776 3.51020408,5.2244898 C4.16326531,4.97959184 4.81632653,4.85714286 5.46938776,4.85714286 C6.32653061,4.85714286 7.06122449,4.97959184 7.71428571,5.26530612 C8.36734694,5.55102041 8.93877551,5.87755102 9.42857143,6.32653061 L8.36734694,7.63265306 Z" id="Path"></path>
                                    <polygon id="Path" points="11.2653061 17.6326531 11.2653061 1.26530612 13.0612245 0.244897959 13.0612245 17.6326531"></polygon>
                                    <path d="M25.1836735,11.5510204 C25.1836735,11.7142857 25.1428571,11.8367347 25.1428571,12 L16.8163265,12 C16.8979592,13.3469388 17.2244898,14.4489796 17.8367347,15.2244898 C18.4489796,16 19.2653061,16.4081633 20.2857143,16.4081633 C21.0204082,16.4081633 21.6326531,16.2857143 22.122449,16.0816327 C22.6122449,15.877551 23.1428571,15.5918367 23.7142857,15.1836735 L24.5306122,16.4897959 C24.1632653,16.7346939 23.7959184,16.9387755 23.4693878,17.1020408 C23.1428571,17.2653061 22.7755102,17.4285714 22.4489796,17.5510204 C22.0816327,17.6734694 21.7142857,17.755102 21.3469388,17.8367347 C20.9795918,17.9183673 20.5306122,17.9183673 20.0408163,17.9183673 C19.4693878,17.9183673 18.8979592,17.7959184 18.2857143,17.5918367 C17.6734694,17.3877551 17.1428571,17.0204082 16.6530612,16.4897959 C16.1632653,15.9591837 15.755102,15.3061224 15.4285714,14.4489796 C15.1020408,13.5918367 14.9387755,12.5714286 14.9387755,11.3469388 C14.9387755,10.3265306 15.0612245,9.42857143 15.3469388,8.65306122 C15.5918367,7.87755102 15.9591837,7.18367347 16.4489796,6.6122449 C16.8979592,6.04081633 17.4693878,5.63265306 18.0816327,5.30612245 C18.6938776,5.02040816 19.3877551,4.85714286 20.122449,4.85714286 C20.9387755,4.85714286 21.6326531,5.02040816 22.2857143,5.30612245 C22.8979592,5.59183673 23.4285714,6.04081633 23.877551,6.57142857 C24.2857143,7.10204082 24.6122449,7.75510204 24.8571429,8.53061224 C25.0612245,9.30612245 25.1836735,10.122449 25.1836735,10.9795918 C25.1836735,11.2244898 25.1836735,11.4285714 25.1836735,11.5510204 Z M22.6122449,7.51020408 C22.0816327,6.73469388 21.2653061,6.36734694 20.1632653,6.36734694 C19.2244898,6.36734694 18.4489796,6.69387755 17.877551,7.3877551 C17.3061224,8.08163265 16.9387755,9.10204082 16.8163265,10.5306122 L23.5510204,10.5306122 C23.4693878,9.30612245 23.1836735,8.28571429 22.6122449,7.51020408 Z" id="Shape"></path>
                                    <path d="M34.122449,17.6326531 L34.122449,16.122449 C33.6734694,16.6122449 33.1428571,17.0204082 32.5306122,17.3877551 C31.9183673,17.755102 31.1428571,17.9183673 30.244898,17.9183673 C29.755102,17.9183673 29.2653061,17.8367347 28.7755102,17.7142857 C28.2857143,17.5918367 27.877551,17.3469388 27.4693878,17.0612245 C27.1020408,16.7346939 26.7755102,16.3265306 26.5714286,15.8367347 C26.3265306,15.3469388 26.244898,14.6938776 26.244898,13.9183673 C26.244898,13.2244898 26.3673469,12.6122449 26.6530612,12.122449 C26.9387755,11.6326531 27.2653061,11.1836735 27.7142857,10.8571429 C28.1632653,10.5306122 28.6530612,10.2857143 29.2244898,10.122449 C29.7959184,9.95918367 30.4081633,9.87755102 31.0204082,9.87755102 C31.6734694,9.87755102 32.244898,9.95918367 32.7755102,10.0816327 C33.3061224,10.2040816 33.755102,10.3673469 34.122449,10.6122449 L34.122449,9.14285714 C34.122449,7.30612245 33.2244898,6.40816327 31.3877551,6.40816327 C30.7346939,6.40816327 30.122449,6.48979592 29.5510204,6.65306122 C29.0204082,6.81632653 28.4897959,7.06122449 27.9591837,7.34693878 L27.3469388,5.87755102 C27.9183673,5.59183673 28.5306122,5.30612245 29.2653061,5.14285714 C30,4.93877551 30.7346939,4.85714286 31.5510204,4.85714286 C32.8979592,4.85714286 33.9591837,5.18367347 34.7755102,5.79591837 C35.5510204,6.40816327 35.9591837,7.46938776 35.9591837,8.89795918 L35.9591837,17.6326531 L34.122449,17.6326531 L34.122449,17.6326531 Z M34.122449,12.0408163 C33.7142857,11.8367347 33.2653061,11.6326531 32.7755102,11.5102041 C32.2857143,11.3877551 31.6734694,11.3061224 30.8979592,11.3061224 C29.9591837,11.3061224 29.2653061,11.5102041 28.7346939,11.9183673 C28.2040816,12.3265306 27.9591837,12.9387755 27.9591837,13.755102 C27.9591837,14.6938776 28.2040816,15.3877551 28.6530612,15.7959184 C29.1020408,16.2040816 29.755102,16.4081633 30.4897959,16.4081633 C31.3061224,16.4081633 32,16.244898 32.6122449,15.877551 C33.2244898,15.5102041 33.7142857,15.0612245 34.0816327,14.5306122 L34.0816327,12.0408163 L34.122449,12.0408163 Z" id="Shape"></path>
                                    <path d="M44.7755102,6.97959184 C44.5306122,6.85714286 44.244898,6.73469388 43.9591837,6.65306122 C43.6734694,6.57142857 43.3061224,6.53061224 42.8979592,6.53061224 C42.0408163,6.53061224 41.3469388,6.85714286 40.8979592,7.55102041 C40.4489796,8.20408163 40.2040816,9.14285714 40.2040816,10.3265306 L40.2040816,17.6734694 L38.3673469,17.6734694 L38.3673469,5.10204082 L40.1632653,5.10204082 L40.1632653,6.65306122 C40.4489796,6.16326531 40.8571429,5.71428571 41.4285714,5.34693878 C42,4.97959184 42.6122449,4.81632653 43.2653061,4.81632653 C43.7142857,4.81632653 44.122449,4.85714286 44.4081633,4.89795918 C44.7346939,4.93877551 44.9795918,5.02040816 45.2244898,5.14285714 L44.7755102,6.97959184 Z" id="Path"></path>
                                    <polygon id="Path" points="46.7755102 17.6326531 46.7755102 1.26530612 48.5714286 0.244897959 48.5714286 17.6326531"></polygon>
                                    <polygon id="Path" points="54.6938776 22.0408163 52.8979592 22.0408163 54.6122449 17.4693878 50.1632653 5.10204082 52.0408163 5.10204082 55.1020408 14.2040816 55.5510204 15.5102041 56 14.244898 59.0612245 5.14285714 60.9387755 5.14285714"></polygon>
                                    <path d="M70.0408163,7.71428571 C69.755102,7.59183673 69.5102041,7.46938776 69.2244898,7.3877551 C68.9387755,7.30612245 68.5714286,7.26530612 68.1632653,7.26530612 C67.3877551,7.26530612 66.7755102,7.55102041 66.3673469,8.08163265 C65.9183673,8.6122449 65.7142857,9.42857143 65.7142857,10.4897959 L65.7142857,17.6326531 L63.2244898,17.6326531 L63.2244898,5.10204082 L65.7142857,5.10204082 L65.7142857,6.28571429 C66,5.87755102 66.4081633,5.51020408 66.8979592,5.26530612 C67.3877551,4.97959184 67.9591837,4.85714286 68.5714286,4.85714286 C69.0612245,4.85714286 69.5102041,4.89795918 69.8367347,4.97959184 C70.1632653,5.06122449 70.4489796,5.18367347 70.6938776,5.3877551 L70.0408163,7.71428571 Z" id="Path"></path>
                                    <path d="M78.0816327,17.6326531 L78.0816327,16.4081633 C77.6326531,16.8571429 77.1428571,17.1836735 76.5714286,17.4693878 C76,17.755102 75.3469388,17.9183673 74.6530612,17.9183673 C74.1632653,17.9183673 73.6326531,17.8367347 73.1020408,17.6734694 C72.5714286,17.5102041 72.122449,17.2653061 71.7142857,16.9387755 C71.3061224,16.6122449 70.9795918,16.1632653 70.6938776,15.6326531 C70.4489796,15.1020408 70.2857143,14.4489796 70.2857143,13.6734694 C70.2857143,12.9795918 70.4081633,12.3673469 70.6530612,11.877551 C70.8979592,11.3877551 71.2653061,10.9387755 71.7142857,10.6122449 C72.1632653,10.2857143 72.6938776,10.0408163 73.3061224,9.87755102 C73.9183673,9.71428571 74.5714286,9.63265306 75.2653061,9.63265306 C76.4081633,9.63265306 77.3469388,9.79591837 78.0408163,10.122449 L78.0408163,9.18367347 C78.0408163,8.48979592 77.8367347,7.95918367 77.4285714,7.59183673 C77.0204082,7.2244898 76.4489796,7.06122449 75.6734694,7.06122449 C75.0204082,7.06122449 74.4489796,7.14285714 73.9183673,7.26530612 C73.3877551,7.3877551 72.8979592,7.59183673 72.4081633,7.87755102 L71.4693878,6 C72.0816327,5.63265306 72.7346939,5.34693878 73.3877551,5.18367347 C74.0816327,4.97959184 74.8571429,4.89795918 75.755102,4.89795918 C77.1428571,4.89795918 78.2857143,5.2244898 79.1428571,5.91836735 C80,6.6122449 80.4489796,7.67346939 80.4489796,9.06122449 L80.4489796,17.6326531 L78.0816327,17.6326531 Z M78.0816327,12.2857143 C77.755102,12.122449 77.3469388,11.9591837 76.8979592,11.877551 C76.4489796,11.7959184 75.877551,11.755102 75.2244898,11.755102 C74.4489796,11.755102 73.7959184,11.9183673 73.3469388,12.244898 C72.8979592,12.5714286 72.6530612,13.0204082 72.6530612,13.5918367 C72.6530612,14.2040816 72.8571429,14.6938776 73.2653061,15.1020408 C73.6734694,15.4693878 74.2857143,15.6734694 75.0612245,15.6734694 C75.7142857,15.6734694 76.3265306,15.5102041 76.8571429,15.1836735 C77.3877551,14.8571429 77.7959184,14.4897959 78.0816327,14.0816327 L78.0816327,12.2857143 L78.0816327,12.2857143 Z" id="Shape"></path>
                                    <path d="M88.5714286,17.3061224 C88.2857143,17.4693878 87.9183673,17.6326531 87.5102041,17.7142857 C87.1020408,17.8367347 86.6530612,17.877551 86.1632653,17.877551 C85.3061224,17.877551 84.6122449,17.5918367 84.0816327,17.0612245 C83.5918367,16.5306122 83.3469388,15.6734694 83.3469388,14.5714286 L83.3469388,7.34693878 L81.5510204,7.34693878 L81.5510204,5.10204082 L83.3469388,5.10204082 L83.3469388,1.51020408 L85.755102,0.204081633 L85.755102,5.06122449 L88.8571429,5.06122449 L88.8571429,7.34693878 L85.755102,7.34693878 L85.755102,14.122449 C85.755102,14.6938776 85.8367347,15.1020408 86.0408163,15.3061224 C86.244898,15.5102041 86.5714286,15.6326531 87.0204082,15.6326531 C87.3469388,15.6326531 87.6734694,15.5918367 88,15.4693878 C88.3265306,15.3469388 88.6122449,15.2653061 88.8163265,15.1428571 L88.5714286,17.3061224 Z" id="Path"></path>
                                    <path d="M100.44898,11.755102 C100.44898,11.9591837 100.408163,12.122449 100.408163,12.244898 L92.122449,12.244898 C92.2040816,12.8571429 92.3265306,13.3469388 92.4897959,13.7959184 C92.6938776,14.244898 92.9387755,14.5714286 93.2244898,14.8571429 C93.5102041,15.1428571 93.8367347,15.3469388 94.1632653,15.4693878 C94.5306122,15.5918367 94.8979592,15.6734694 95.2653061,15.6734694 C95.7959184,15.6734694 96.2857143,15.5918367 96.6938776,15.4285714 C97.1428571,15.2653061 97.5510204,15.0204082 97.9591837,14.6938776 L99.4285714,16.2857143 C98.8571429,16.8163265 98.244898,17.2244898 97.5510204,17.5102041 C96.8571429,17.7959184 96.0408163,17.9591837 95.1020408,17.9591837 C94.3673469,17.9591837 93.6734694,17.8367347 93.0204082,17.5102041 C92.3673469,17.2244898 91.7959184,16.8163265 91.3061224,16.244898 C90.8163265,15.6734694 90.4081633,15.0204082 90.122449,14.2040816 C89.8367347,13.3877551 89.6734694,12.4897959 89.6734694,11.4285714 C89.6734694,10.3673469 89.7959184,9.42857143 90.0816327,8.6122449 C90.3673469,7.79591837 90.7346939,7.10204082 91.1836735,6.57142857 C91.6734694,6.04081633 92.244898,5.59183673 92.8979592,5.30612245 C93.5918367,5.02040816 94.3265306,4.85714286 95.1428571,4.85714286 C96.0408163,4.85714286 96.8163265,5.02040816 97.4693878,5.34693878 C98.122449,5.67346939 98.6938776,6.12244898 99.1020408,6.69387755 C99.5510204,7.26530612 99.877551,7.91836735 100.081633,8.69387755 C100.285714,9.46938776 100.408163,10.244898 100.408163,11.1020408 C100.44898,11.3469388 100.44898,11.5510204 100.44898,11.755102 Z M97.755102,9.02040816 C97.6326531,8.65306122 97.4693878,8.28571429 97.2244898,8 C96.9795918,7.71428571 96.6938776,7.46938776 96.3265306,7.30612245 C95.9591837,7.14285714 95.5510204,7.06122449 95.0204082,7.06122449 C94.2040816,7.06122449 93.5510204,7.34693878 93.0612245,7.87755102 C92.5714286,8.40816327 92.2857143,9.18367347 92.1632653,10.2040816 L98,10.2040816 C97.9591837,9.79591837 97.877551,9.3877551 97.755102,9.02040816 Z" id="Shape"></path>
                                    <path d="M109.632653,17.6326531 L109.632653,16.4081633 C109.183673,16.8163265 108.693878,17.1836735 108.163265,17.4693878 C107.632653,17.755102 107.061224,17.877551 106.367347,17.877551 C105.673469,17.877551 105.061224,17.755102 104.489796,17.5102041 C103.918367,17.2653061 103.387755,16.8571429 102.938776,16.3265306 C102.489796,15.7959184 102.163265,15.1020408 101.918367,14.244898 C101.673469,13.3877551 101.55102,12.3673469 101.55102,11.1836735 C101.55102,10.122449 101.673469,9.18367347 101.959184,8.40816327 C102.244898,7.63265306 102.571429,6.93877551 103.061224,6.44897959 C103.510204,5.91836735 104.040816,5.55102041 104.653061,5.26530612 C105.265306,5.02040816 105.877551,4.89795918 106.530612,4.89795918 C107.183673,4.89795918 107.755102,5.06122449 108.326531,5.34693878 C108.897959,5.63265306 109.346939,5.95918367 109.673469,6.36734694 L109.673469,1.51020408 L112.122449,0.244897959 L112.122449,17.6326531 L109.632653,17.6326531 Z M109.632653,8.7755102 C109.510204,8.57142857 109.306122,8.40816327 109.102041,8.20408163 C108.897959,8 108.653061,7.83673469 108.408163,7.67346939 C108.163265,7.51020408 107.877551,7.3877551 107.591837,7.26530612 C107.306122,7.14285714 107.020408,7.10204082 106.693878,7.10204082 C105.795918,7.10204082 105.142857,7.42857143 104.693878,8.08163265 C104.244898,8.73469388 104,9.71428571 104,11.0612245 C104,12.6530612 104.244898,13.7959184 104.734694,14.4897959 C105.22449,15.1836735 105.918367,15.5510204 106.816327,15.5510204 C107.387755,15.5510204 107.959184,15.3877551 108.44898,15.0612245 C108.938776,14.7346939 109.346939,14.3673469 109.673469,13.9591837 L109.673469,8.7755102 L109.632653,8.7755102 Z" id="Shape"></path>
                                </g>
                                <path d="M114.204082,5.34693878 L114.204082,6.85714286 L113.877551,6.85714286 L113.877551,5.34693878 L113.346939,5.34693878 L113.346939,5.06122449 L114.693878,5.06122449 L114.693878,5.34693878 L114.204082,5.34693878 Z M116.326531,6.85714286 L116.326531,5.91836735 L116.326531,5.71428571 C116.326531,5.75510204 116.285714,5.75510204 116.285714,5.79591837 C116.285714,5.83673469 116.244898,5.83673469 116.244898,5.87755102 L115.795918,6.89795918 L115.346939,5.87755102 C115.346939,5.83673469 115.306122,5.83673469 115.306122,5.79591837 C115.306122,5.75510204 115.265306,5.75510204 115.265306,5.71428571 C115.265306,5.75510204 115.265306,5.79591837 115.265306,5.83673469 C115.265306,5.87755102 115.265306,5.91836735 115.265306,5.91836735 L115.265306,6.85714286 L114.979592,6.85714286 L114.979592,5.06122449 L115.306122,5.06122449 L115.714286,6 C115.714286,6.04081633 115.755102,6.08163265 115.755102,6.12244898 C115.755102,6.16326531 115.795918,6.20408163 115.795918,6.24489796 C115.795918,6.20408163 115.836735,6.16326531 115.836735,6.12244898 C115.836735,6.08163265 115.877551,6.04081633 115.877551,6 L116.285714,5.06122449 L116.612245,5.06122449 L116.612245,6.85714286 L116.326531,6.85714286 Z" id="Shape"></path>
                            </g>
                            <g id="Group" transform="translate(14.693878, 0.000000)">
                                <path d="M9.83673469,6.36734694 C10.0408163,5.2244898 10.5306122,4.12244898 11.1836735,3.46938776 C9.75510204,4.6122449 8.7755102,5.14285714 7.2244898,6.81632653 C6.7755102,7.30612245 6.40816327,7.95918367 6.12244898,8.73469388 C6.73469388,8.36734694 7.34693878,7.95918367 7.95918367,7.55102041 C8.6122449,7.14285714 9.2244898,6.73469388 9.83673469,6.36734694 Z" id="Path" fill="#1D4354"></path>
                                <path d="M3.26530612,17.7142857 C2.24489796,18.4081633 1.06122449,20.122449 0.857142857,21.3469388 C3.3877551,19.7142857 9.10204082,17.4285714 10.3673469,13.2244898 C8.93877551,14.122449 7.34693878,15.1428571 6,15.9591837 C4.7755102,16.7346939 3.67346939,17.4285714 3.26530612,17.7142857 Z" id="Path" fill="#1D4354"></path>
                                <path d="M13.2244898,4.73469388 C11.7959184,5.79591837 4.44897959,10.2857143 3.02040816,11.3877551 C1.63265306,12.4489796 0.448979592,14.2040816 0.367346939,15.7959184 C0.285714286,17.3877551 0.367346939,21.755102 0.367346939,21.755102 C0.367346939,20.2857143 1.79591837,18.2040816 3.02040816,17.3469388 C4.28571429,16.4489796 11.4693878,12.2040816 13.2244898,10.6938776 C14.9795918,9.18367347 15.7142857,7.71428571 15.877551,6.28571429 C16.2040816,3.67346939 15.9183673,2.44897959 15.877551,0.326530612 C15.7142857,1.79591837 14.6530612,3.63265306 13.2244898,4.73469388 Z" id="Path" fill="#1D4354"></path>
                            </g>
                        </g>
                    </g>
                </g>
            </g>
        </g>
    </g>
</svg>