<?xml version="1.0" encoding="UTF-8" standalone="no"?>
<!-- Created with Inkscape (http://www.inkscape.org/) -->
<svg
   xmlns:svg="http://www.w3.org/2000/svg"
   xmlns="http://www.w3.org/2000/svg"
   version="1.0"
   width="243"
   height="48"
   id="svg2646">
  <defs
     id="defs2648" />
  <g
     transform="translate(-312.78571,-254.07646)"
     id="layer1">
    <path
       d="M 408.67957,274.38232 L 408.89339,274.16081 L 409.11683,273.94892 L 409.34801,273.75627 L 409.58783,273.57328 L 409.83342,273.39991 L 410.08578,273.23618 L 410.34292,273.08209 L 410.60395,272.94725 L 410.86976,272.81241 L 411.13752,272.68719 L 411.40816,272.58125 L 411.67881,272.4753 L 411.95137,272.37898 L 412.22298,272.30194 L 412.49266,272.21525 L 412.76138,272.14783 L 413.0272,272.08042 L 413.29014,272.03225 L 413.54827,271.97447 L 413.80158,271.93595 L 414.04814,271.89742 L 414.28893,271.85889 L 414.522,271.83 L 414.74737,271.81074 L 414.96312,271.79146 L 415.16924,271.7722 L 415.36476,271.76257 L 415.54872,271.75294 L 415.72015,271.74331 L 415.87908,271.74331 L 416.0245,271.73368 L 416.15551,271.73368 C 416.79501,271.73368 418.46126,271.79146 420.09476,272.30194 C 423.42723,273.35176 425.10215,275.58914 425.10215,278.04228 C 425.10215,278.52769 425.06072,279.55055 424.38363,280.73618 C 423.66803,281.99983 421.5202,284.39613 416.27204,284.39613 C 414.36404,284.39613 413.13025,284.09949 412.41947,283.91455 C 407.80697,282.59408 407.32925,279.44172 407.24642,278.33891 C 407.20887,277.66569 407.16744,275.96862 408.67957,274.38232 z M 404.58621,284.75057 L 404.96762,285.02505 L 405.35771,285.28318 L 405.75547,285.52589 L 406.15999,285.7532 L 406.57029,285.96605 L 406.98638,286.16447 L 407.40535,286.35035 L 407.82623,286.52179 L 408.25001,286.68071 L 408.67476,286.82806 L 409.09855,286.96386 L 409.52137,287.08811 L 409.94226,287.20081 L 410.36025,287.30386 L 410.77346,287.39729 L 411.18183,287.48108 L 411.58344,287.5562 L 411.97834,287.62266 L 412.36456,287.68237 L 412.74212,287.73341 L 413.11003,287.77772 L 413.46641,287.81626 L 413.81023,287.84899 L 414.14157,287.875 L 414.45844,287.89716 L 414.75991,287.91449 L 415.04501,287.92797 L 415.31372,287.9376 L 415.56413,287.94435 L 415.7953,287.94917 L 416.0062,287.9511 L 416.19691,287.95205 C 419.81255,287.95205 423.42723,287.28267 426.21168,285.76957 C 428.00216,284.80257 431.38473,282.37642 431.38473,278.14726 C 431.38473,277.07142 431.10638,274.13191 428.12255,271.68553 C 425.13969,269.2584 420.57247,268.18931 416.19691,268.18931 C 414.60483,268.18931 409.83439,268.31452 406.01551,270.41417 C 404.18748,271.41584 400.84634,273.92002 400.92532,278.17423 C 400.96672,279.33674 401.28265,282.27047 404.58621,284.75057 z M 444.16852,268.77683 L 469.22951,268.77683 L 469.51846,272.36935 L 459.83886,272.36935 L 459.83886,287.35009 L 453.55917,287.35009 L 453.55917,272.36935 L 443.86032,272.36935 L 444.16852,268.77683 z M 380.707,281.06653 L 380.65789,281.13975 L 380.60972,281.21005 L 380.56349,281.27747 L 380.51824,281.34296 L 380.47393,281.4046 L 380.43059,281.46529 L 380.38819,281.52307 L 380.34679,281.57798 L 380.30633,281.63191 L 380.26588,281.68295 L 380.22735,281.73208 L 380.18883,281.78023 L 380.15031,281.8255 L 380.11275,281.8698 L 380.07613,281.91315 L 380.03954,281.9536 L 379.96731,282.03256 L 379.89603,282.10674 L 379.82477,282.17705 L 379.75349,282.2435 L 379.68125,282.30803 L 379.6071,282.37159 L 379.53197,282.4342 L 379.45396,282.4968 C 378.37043,283.38483 376.56451,284.34798 372.93829,284.34798 C 372.70135,284.35857 372.45285,284.35857 372.19667,284.35857 C 370.86079,284.35857 368.00603,284.27285 365.50763,282.53438 C 363.36658,281.04439 363.19031,278.92258 363.19031,278.13955 C 363.19031,275.58914 364.71689,274.22822 365.71857,273.53476 C 367.43007,272.40788 369.98048,271.76257 372.57326,271.76257 C 372.70135,271.76257 372.93829,271.78183 372.93829,271.78183 C 375.39817,271.78183 377.09522,272.40788 377.90425,272.79315 C 379.31142,273.49623 380.0145,274.30528 380.4065,274.75025 L 387.19666,273.92002 C 387.05797,273.65997 386.88075,273.39991 386.7045,273.13987 C 386.24508,272.54272 385.08641,271.26174 382.97233,270.19266 C 379.10047,268.28562 374.31077,268.18931 372.93829,268.18931 C 372.92672,268.18931 372.91517,268.18931 372.90747,268.18931 C 369.26968,268.18931 365.58661,268.60347 362.39571,270.20229 C 358.88602,271.95521 357.11769,275.01703 357.11769,277.99701 C 357.11769,281.16478 358.68279,283.9261 361.59053,285.70986 C 364.40868,287.43293 368.44234,287.96361 372.23809,287.96361 C 372.47501,287.96361 372.7081,287.95976 372.93829,287.95205 C 378.83754,287.89908 382.02362,286.52275 384.02889,285.21673 C 385.54199,284.22758 386.21522,283.39542 386.5947,282.82043 C 386.91447,282.34945 387.35847,281.6165 387.44515,281.07039 L 380.707,281.06653 z M 504.74062,268.77683 L 497.51704,276.33751 C 497.13178,276.71024 496.89101,277.18025 496.89101,277.18025 C 496.89101,277.18025 496.65984,276.71024 496.26495,276.33751 C 496.22643,276.29995 489.89857,269.49919 489.22438,268.77683 L 482.37642,268.77683 L 493.76077,280.16407 L 493.76077,287.33082 L 500.04048,287.33082 L 500.04048,280.16407 L 511.45372,268.77683 L 504.74062,268.77683 z"
       id="path2604"
       style="font-style:normal;font-variant:normal;font-weight:normal;font-stretch:normal;letter-spacing:normal;word-spacing:normal;text-anchor:start;fill:#0053d1;fill-opacity:1;fill-rule:evenodd;stroke:#0053d1;stroke-width:0;stroke-linecap:butt;stroke-linejoin:miter;stroke-miterlimit:10.43299961;stroke-dasharray:none;stroke-dashoffset:0;stroke-opacity:1" />
  </g>
</svg>
