<svg role="img" viewBox="0 0 145 130" xmlns="http://www.w3.org/2000/svg" fill="none"><path d="M138 65c0 35.899-29.102 65-65 65-35.897 0-65-29.101-65-65C8 29.102 37.103 0 73 0c35.898 0 65 29.102 65 65z" fill="#1D4354" fillRule="evenodd"></path><path d="M22.69 54.626v2.294h-2.293a.489.489 0 1 0 0 .976h2.292v2.294a.488.488 0 1 0 .977 0v-2.294h2.292a.488.488 0 1 0 0-.976h-2.292v-2.294a.488.488 0 1 0-.977 0z" fill="#FFCC0D" fillRule="evenodd"></path><path d="M34.199 40.411a1.946 1.946 0 1 0 3.891 0 1.946 1.946 0 0 0-3.891 0z" fill="#F3756C" fillRule="evenodd"></path><path d="M106.322 32.7c0 7.18-5.821 13.002-13.002 13.002-7.18 0-13.003-5.822-13.003-13.002 0-7.181 5.823-13.002 13.003-13.002 7.181 0 13.002 5.82 13.002 13.002z" fill="#6FDA44" fillRule="evenodd"></path><path d="M91.693 38.077c-.309 0-.616-.118-.853-.352l-4.297-4.3a1.204 1.204 0 1 1 1.703-1.703l3.452 3.452 7.59-7.503a1.204 1.204 0 1 1 1.694 1.714L92.54 37.73a1.205 1.205 0 0 1-.847.347z" fill="#fff" fillRule="evenodd"></path><path d="M88.472 98.927l-4.602 2.694a9.922 9.922 0 0 1-5.01 1.358H49.562c-2.638 0-5.26-2.114-5.577-4.732a5.366 5.366 0 0 1 1.487-4.42c.282-.29.052-.759-.354-.756-3.192.028-4.724-2.829-4.724-5.251 0-1.123.344-2.165.932-3.029a.574.574 0 0 0-.352-.894 5.384 5.384 0 0 1-4.206-5.25c0-1.525.637-2.896 1.656-3.875a.597.597 0 0 0-.197-.975A5.382 5.382 0 0 1 34.8 68.56c.118-2.942 2.723-5.178 5.667-5.178h21.965c.022 0 .036-.015.033-.037-.77-5.19-1.59-15.151-.849-17.44.887-2.75 2.911-5.04 5.895-5.04 3.308 0 5.15 2.682 5.15 5.992 0 .072-.02.14-.022.212l.022.002s1.478 22.797 15.812 27.548h7.61v24.573l-7.61-.265z" fill="#E0E0E0" fillRule="evenodd"></path><path d="M85.018 67.952v37.53h38.828c8.285-10.39 13.457-23.366 14.089-37.53H85.018z" fill="#6FDA44" fillRule="evenodd"></path><path d="M94.493 105.482H83.552a1 1 0 0 1-1.001-1v-35.53a1 1 0 0 1 1-1h10.942v37.53z" fill="#34BA08" fillRule="evenodd"></path><path d="M86.669 74.5a1.945 1.945 0 1 0 3.89 0 1.945 1.945 0 0 0-3.89 0z" fill="#54D318" fillRule="evenodd"></path></svg>