<?xml version="1.0" encoding="UTF-8"?>
<svg width="40px" height="40px" viewBox="0 0 40 40" version="1.1" xmlns="http://www.w3.org/2000/svg" xmlns:xlink="http://www.w3.org/1999/xlink">
    <title>A7C1C902-5ED1-4174-9DF0-BE2C28F164C9</title>
    <g id="Page-1" stroke="none" stroke-width="1" fill="none" fill-rule="evenodd">
        <g id="XL-Logo-Bar" transform="translate(-732.000000, -220.000000)">
            <g id="Logo-Bar" transform="translate(230.000000, 219.000000)">
                <g id="logo-xl" transform="translate(208.000000, 1.000000)">
                    <g id="logo-ge" transform="translate(294.000000, 0.000000)">
                        <rect id="bg" x="0.363636364" y="0" width="38.9818182" height="40"></rect>
                        <path d="M33.8181818,5.74545455 C29.9636364,1.89090909 25.3090909,0 19.8545455,0 C14.4,0 9.74545455,1.89090909 5.81818182,5.74545455 C1.89090909,9.6 0,14.2545455 0,19.6363636 C0,25.0909091 1.96363636,29.7454545 5.81818182,33.6 C9.67272727,37.4545455 14.3272727,39.3454545 19.7818182,39.3454545 C25.2363636,39.3454545 29.8909091,37.4545455 33.7454545,33.6 C37.6,29.7454545 39.5636364,25.0909091 39.5636364,19.6363636 C39.6363636,14.2545455 37.6727273,9.6 33.8181818,5.74545455 Z M33.1636364,32.9454545 C29.5272727,36.5818182 25.0181818,38.4727273 19.8545455,38.4727273 C14.6909091,38.4727273 10.2545455,36.6545455 6.54545455,32.9454545 C2.83636364,29.3090909 1.01818182,24.8727273 1.01818182,19.7090909 C1.01818182,14.5454545 2.83636364,10.1090909 6.54545455,6.47272727 C10.2545455,2.83636364 14.6909091,1.01818182 19.8545455,1.01818182 C25.0181818,1.01818182 29.4545455,2.83636364 33.1636364,6.54545455 C36.8727273,10.2545455 38.6909091,14.6181818 38.6909091,19.7818182 C38.6909091,24.9454545 36.8727273,29.2363636 33.1636364,32.9454545 Z M34.7636364,10.5454545 C32.9454545,7.63636364 30.4727273,5.67272727 27.2,4.72727273 C25.6,4.29090909 24.2909091,4 23.2,4 C21.9636364,4 21.0181818,4.29090909 20.2181818,4.87272727 C19.4181818,5.52727273 18.8363636,5.81818182 18.4727273,5.81818182 C17.5272727,5.81818182 17.0909091,5.38181818 17.0909091,4.50909091 C17.0909091,3.85454545 17.4545455,3.34545455 18.1090909,2.90909091 C18.8363636,2.47272727 19.7090909,2.25454545 20.8727273,2.25454545 C22.7636364,2.25454545 24.1454545,2.47272727 25.0909091,2.98181818 L25.1636364,2.83636364 C23.4181818,2.25454545 21.6,1.89090909 19.5636364,1.89090909 C16.2181818,1.89090909 13.2363636,2.69090909 10.5454545,4.36363636 C7.63636364,6.10909091 5.74545455,8.65454545 4.72727273,11.8545455 C4.21818182,13.3818182 4,14.6909091 4,15.8545455 C4,17.0181818 4.29090909,18.0363636 4.87272727,18.9090909 C5.45454545,19.7090909 5.74545455,20.2909091 5.74545455,20.6545455 C5.74545455,21.5272727 5.30909091,21.9636364 4.43636364,21.9636364 C2.90909091,21.9636364 2.18181818,20.7272727 2.18181818,18.1818182 C2.18181818,16.7272727 2.4,15.2727273 2.83636364,13.9636364 L2.69090909,13.8909091 C2.10909091,16.2181818 1.81818182,18.0363636 1.81818182,19.4181818 C1.81818182,22.7636364 2.61818182,25.8181818 4.29090909,28.4363636 C6.18181818,31.2727273 8.72727273,33.2363636 12,34.1818182 C13.5272727,34.6181818 14.8363636,34.9090909 16,34.9090909 C17.2363636,34.9090909 18.1818182,34.6181818 18.9818182,33.9636364 C19.7818182,33.3818182 20.3636364,33.0181818 20.7272727,33.0181818 C21.6727273,33.0181818 22.1090909,33.4545455 22.1090909,34.4 C22.1090909,34.9818182 21.7454545,35.5636364 21.0909091,35.9272727 C20.3636364,36.3636364 19.4909091,36.5818182 18.3272727,36.5818182 C16.5818182,36.5818182 15.2,36.3636364 14.1090909,35.9272727 L14.0363636,36.0727273 C15.3454545,36.6545455 17.1636364,36.9454545 19.6363636,36.9454545 C22.9818182,36.9454545 25.9636364,36.1454545 28.6545455,34.4727273 C31.5636364,32.7272727 33.4545455,30.1818182 34.4727273,26.9818182 C34.9818182,25.4545455 35.2,24.1454545 35.2,23.0545455 C35.2,21.8181818 34.9090909,20.8 34.3272727,20 C33.7454545,19.2 33.4545455,18.6181818 33.4545455,18.2545455 C33.4545455,17.3818182 33.8909091,16.8727273 34.7636364,16.8727273 C35.4181818,16.8727273 35.9272727,17.2363636 36.3636364,17.9636364 C36.8,18.6909091 37.0181818,19.6363636 37.0181818,20.8 C37.0181818,22.0363636 36.8,23.4909091 36.3636364,25.0181818 L36.5090909,25.0909091 C37.0909091,23.3454545 37.3818182,21.4545455 37.3818182,19.4909091 C37.2363636,16.0727273 36.4363636,13.1636364 34.7636364,10.5454545 Z M29.0909091,28.2909091 C28.0727273,29.3090909 26.8363636,29.8181818 25.3090909,29.8181818 C23.4909091,29.8181818 22.1090909,29.1636364 21.0181818,27.8545455 C20.0727273,26.7636364 19.5636364,25.3818182 19.5636364,23.8545455 C19.5636364,21.0181818 20.8727273,18.9090909 23.4909091,17.6 C23.2727273,17.4545455 23.1272727,17.2363636 22.9090909,16.9454545 C21.3818182,18.0363636 19.7090909,19.0545455 17.8909091,20.0727273 C17.7454545,22.4 17.5272727,24.0727273 17.1636364,25.0181818 C16.0727273,28.2181818 14.3272727,29.8181818 11.7818182,29.8181818 C10.7636364,29.8181818 9.96363636,29.5272727 9.45454545,28.8727273 C8.87272727,28.2909091 8.65454545,27.4909091 8.65454545,26.6181818 C8.65454545,25.2363636 9.30909091,23.9272727 10.6181818,22.7636364 C11.3454545,22.1818182 12.1454545,21.5272727 13.1636364,20.9454545 C13.6727273,20.6545455 14.7636364,20.0727273 16.3636364,19.2727273 C16.4363636,18.8363636 16.5090909,18.4727273 16.5090909,18.2545455 C15.9272727,18.7636364 15.2,18.9818182 14.3272727,18.9818182 C13.0909091,18.9818182 12.2909091,18.3272727 12,16.9454545 C10.1818182,16.8 9.30909091,15.8545455 9.23636364,14.0363636 C9.16363636,12.5090909 9.67272727,11.7090909 10.5454545,11.7090909 C10.8363636,11.7090909 10.9818182,11.8545455 10.9818182,12.2181818 C10.9818182,12.2181818 10.9090909,12.4363636 10.8363636,12.8727273 C10.7636364,13.2363636 10.6909091,13.6 10.6909091,13.8909091 C10.6909091,14.9818182 11.1272727,15.4909091 11.9272727,15.4909091 C11.9272727,14.0363636 12.3636364,12.5818182 13.3090909,11.1272727 C14.2545455,9.67272727 15.2727273,9.01818182 16.4363636,9.01818182 C17.6727273,9.01818182 18.3272727,9.6 18.3272727,10.7636364 C18.3272727,12 17.8181818,13.2363636 16.8,14.4727273 C15.7818182,15.7090909 14.7636364,16.5090909 13.6727273,16.8727273 C13.8181818,17.3818182 14.1090909,17.6727273 14.6181818,17.6727273 C15.4181818,17.6727273 16.2181818,17.2363636 16.9454545,16.2909091 C17.3090909,14.4727273 18.0363636,13.5272727 19.0545455,13.5272727 C19.4909091,13.5272727 19.7090909,13.7454545 19.7090909,14.2545455 C19.7090909,14.8363636 19.2,15.7090909 18.1818182,16.8 C18.0363636,17.3090909 18.0363636,17.8909091 18.0363636,18.4 C19.9272727,17.3090909 21.3818182,16.3636364 22.4,15.6363636 C22.3272727,15.4181818 22.2545455,14.9818182 22.2545455,14.4 C22.2545455,13.0909091 22.6181818,11.8545455 23.4181818,10.6909091 C24.2181818,9.6 25.0909091,9.01818182 26.1818182,9.01818182 C27.4909091,9.01818182 28.0727273,9.6 28.0727273,10.8363636 C28.0727273,12.3636364 26.7636364,14.1090909 24.2181818,16 C24.4363636,16.5090909 24.7272727,16.8727273 25.0909091,17.0181818 C25.1636364,16.8727273 25.6,16.8 26.4727273,16.8 C27.5636364,16.8 28.0727273,17.0909091 28.0727273,17.6 C28.0727273,18.1818182 27.4181818,18.5454545 26.1818182,18.5454545 C25.8909091,18.5454545 25.5272727,18.5454545 25.0181818,18.4727273 C22.6909091,19.0545455 21.5272727,20.8 21.5272727,23.6363636 C21.5272727,24.8727273 21.8909091,25.9636364 22.6181818,26.8363636 C23.3454545,27.7090909 24.2181818,28.1454545 25.3090909,28.1454545 C26.2545455,28.1454545 26.9818182,27.8545455 27.6363636,27.2 C28.2909091,26.6181818 28.5818182,25.8181818 28.5818182,24.8 C28.6545455,23.0545455 28,22.1090909 26.6909091,22.1090909 C25.8909091,22.1090909 25.4545455,22.4727273 25.4545455,23.2727273 C25.4545455,23.6363636 25.6,24 25.8181818,24.3636364 C26.1090909,24.6545455 26.1818182,24.9454545 26.1818182,25.1636364 C26.1818182,25.6 25.8909091,25.8909091 25.3818182,25.8909091 C24.8,25.8909091 24.3636364,25.6727273 24,25.1636364 C23.6363636,24.7272727 23.4181818,24.1454545 23.4181818,23.4181818 C23.4181818,22.6181818 23.7090909,21.8909091 24.3636364,21.3090909 C25.0181818,20.7272727 25.7454545,20.4363636 26.6909091,20.4363636 C27.8545455,20.4363636 28.7272727,20.8727273 29.3818182,21.6727273 C30.0363636,22.4727273 30.4,23.4909091 30.4,24.7272727 C30.5454545,26.1090909 30.0363636,27.2727273 29.0909091,28.2909091 Z M26.4,10.4 C25.9636364,10.4 25.5272727,10.7636364 25.0909091,11.5636364 C24.6545455,12.2909091 24.3636364,13.2363636 24.3636364,14.1818182 C25.9636364,12.8 26.7636364,11.7090909 26.7636364,10.9818182 C26.7636364,10.6181818 26.6181818,10.4 26.4,10.4 Z M16.8,10.4 C16.2181818,10.4 15.5636364,10.9818182 14.9090909,12.0727273 C14.1818182,13.2363636 13.8909091,14.2545455 13.8909091,15.1272727 C14.8363636,14.6909091 15.5636364,13.9636364 16.2181818,13.0909091 C16.8727273,12.2181818 17.1636364,11.4181818 17.1636364,10.7636364 C17.2363636,10.5454545 17.0909091,10.4 16.8,10.4 Z M10.5454545,26.5454545 C10.5454545,27.4909091 10.9818182,28 11.8545455,28 C12.9454545,28 13.9636364,27.2 14.8363636,25.6727273 C15.5636364,24.3636364 16,22.7636364 16.2909091,20.9454545 C12.4363636,22.6909091 10.5454545,24.5818182 10.5454545,26.5454545 L10.5454545,26.5454545 Z" id="Fill-1" fill="#3B73B9" fill-rule="nonzero"></path>
                    </g>
                </g>
            </g>
        </g>
    </g>
</svg>