<?xml version="1.0" encoding="UTF-8" standalone="no"?>
<svg xmlns="http://www.w3.org/2000/svg" width="110" height="40" viewBox="0 0 110 40">
  <g fill="none" fillRule="evenodd">
    <rect width="109.55" height="40" />
    <path fill="#1D4354" fillRule="nonzero" d="M21.8408488,1.0465545 C19.2094341,-0.623398104 15.745239,-0.225530806 12.6555805,1.74636493 C9.57558049,-0.225530806 6.10923902,-0.623398104 3.4810439,1.0465545 C-0.676419512,3.68555924 -1.18188293,10.4820047 2.35314146,16.2276445 C4.9588,20.4635687 9.03362927,22.9456066 12.6609463,22.8998246 C16.2882634,22.9456066 20.3630927,20.4635687 22.9687512,16.2276445 C26.4994829,10.4820047 25.9983122,3.68555924 21.8408488,1.0465545 Z M4.26445854,15.0144218 C3.535549,13.8407279 2.98559029,12.561811 2.63323902,11.2210569 C2.32019007,10.05721 2.20049826,8.84846888 2.27909268,7.64461137 C2.43684878,5.52119905 3.28787317,3.86759716 4.67440976,2.98792891 C6.06094634,2.10826066 7.89392195,2.05484834 9.84601951,2.84186256 C10.1389951,2.96067773 10.4287512,3.0980237 10.716361,3.24954028 C9.63158605,4.25420789 8.68833435,5.4059643 7.91323902,6.6722891 C5.76689756,10.1604408 5.11226341,14.0420995 5.86133659,17.1367441 C5.26404994,16.482287 4.72935313,15.771651 4.26445854,15.0144218 L4.26445854,15.0144218 Z M22.6897268,11.2199668 C22.3369108,12.5605559 21.7869818,13.8394037 21.0585073,15.0133318 C20.5932159,15.7716374 20.0585562,16.4836839 19.4616293,17.1400142 C20.1312878,14.3658436 19.6762634,10.9670758 18.0343122,7.77977725 C17.9812802,7.67362077 17.886459,7.59524936 17.7733483,7.56408586 C17.6602377,7.53292236 17.539424,7.5518835 17.4408488,7.61627014 L12.3218244,10.8646114 C12.2275249,10.9243759 12.1605029,11.0197857 12.1355391,11.1298 C12.1105752,11.2398143 12.1297199,11.3553964 12.1887512,11.4510569 L12.9399707,12.6708199 C12.9986066,12.7665291 13.0923494,12.8345838 13.2004857,12.8599465 C13.308622,12.8853092 13.4222503,12.8658921 13.5162634,12.8059858 L16.8345073,10.7000142 C16.9418244,11.0270284 17.0491415,11.3540427 17.1296293,11.6810569 C17.4426206,12.8434328 17.5626722,14.0506705 17.4848488,15.2531422 C17.3270927,17.3754645 16.4760683,19.0290664 15.0895317,19.9098246 C14.3743651,20.3539589 13.5549068,20.594891 12.7167512,20.607455 L12.6105073,20.607455 C11.7723125,20.5951578 10.9527863,20.3542057 10.2377268,19.9098246 C8.85011707,19.0290664 7.99909268,17.3754645 7.84133659,15.2531422 C7.76322389,14.0492931 7.88290769,12.8406328 8.19548293,11.6766967 C8.91470257,8.98386974 10.4014287,6.56701694 12.4688488,4.72982464 C13.3604013,3.93495209 14.3758761,3.29619344 15.4737268,2.83968246 C17.4204585,2.05266825 19.2566537,2.10499052 20.6442634,2.98574882 C22.0318732,3.86650711 22.8818244,5.51901896 23.0395805,7.64243128 C23.1191899,8.8463996 23.0009565,10.0554309 22.6897268,11.2199668 L22.6897268,11.2199668 Z M49.1133366,8.68342654 C46.4218244,8.68342654 44.2465073,10.8177393 44.2465073,13.5330474 C44.2465073,16.2298246 46.4218244,18.3292559 49.1133366,18.3292559 C51.8230927,18.3292559 53.9984098,16.2330948 53.9984098,13.5330474 C53.9984098,10.8188294 51.8263122,8.68451659 49.1133366,8.68451659 L49.1133366,8.68342654 Z M49.1133366,15.7938057 C47.8727512,15.7938057 46.928361,14.7746114 46.928361,13.5145166 C46.928361,12.2544218 47.8727512,11.2199668 49.1133366,11.2199668 C50.3721659,11.2199668 51.3165561,12.2576919 51.3165561,13.5177867 C51.3165561,14.7778815 50.3721659,15.7981659 49.1133366,15.7981659 L49.1133366,15.7938057 Z M60.0671902,4.95866048 L55.1145073,4.95866048 C55.0063956,4.95663058 54.9021151,4.9994018 54.8257559,5.07716754 C54.7493968,5.15493328 54.7075641,5.26096664 54.709922,5.37077251 L54.709922,17.6348957 C54.7021278,17.7484103 54.741396,17.8600679 54.8182336,17.9428753 C54.8950713,18.0256827 55.0024848,18.0721032 55.1145073,18.070937 L60.0671902,18.070937 C64.0304098,18.070937 66.7841659,15.3937583 66.7841659,11.499019 C66.7841659,7.58029858 64.0304098,4.95866048 60.0671902,4.95866048 Z M60.1841659,15.4809621 L57.4744098,15.4809621 L57.4744098,7.54214692 L60.1841659,7.54214692 C62.3777268,7.54214692 63.8898244,9.20882938 63.8898244,11.4935687 C63.8898244,13.7401564 62.3777268,15.4809621 60.1841659,15.4809621 Z M76.6423122,8.94721801 L74.780361,8.94721801 C74.566958,8.96435839 74.4004707,9.14191911 74.3940195,9.35925592 L74.3940195,9.92063033 C73.9701171,9.20882938 73.0117756,8.68451659 71.8184098,8.68451659 C69.4960683,8.68451659 67.3207512,10.5375972 67.3207512,13.4970758 C67.3207512,16.4402038 69.4767512,18.3270758 71.8001659,18.3270758 C72.9978244,18.3270758 73.9754829,17.8038531 74.3993854,17.0920521 L74.3993854,17.6719573 C74.400552,17.8883682 74.5726706,18.0636792 74.7857268,18.0654645 L76.647678,18.0654645 C76.7511359,18.0678742 76.8510608,18.0271899 76.9242357,17.9528642 C76.9974107,17.8785385 77.0374652,17.7770421 77.0350927,17.6719573 L77.0350927,9.35925592 C77.0382805,9.2512837 76.9983448,9.14659095 76.9243677,9.06898686 C76.8503906,8.99138277 76.7486602,8.9474638 76.6423122,8.94721801 L76.6423122,8.94721801 Z M72.3109951,15.8145166 C71.077922,15.8145166 70.1517756,14.8520047 70.1517756,13.5166967 C70.1517756,12.1813886 71.077922,11.2199668 72.3109951,11.2199668 C73.5440683,11.2199668 74.4702146,12.1802986 74.4702146,13.5156066 C74.4702146,14.8509147 73.5451415,15.8134265 72.3109951,15.8134265 L72.3109951,15.8145166 Z M87.093922,4.9587346 L85.2319707,4.9587346 C85.1266935,4.95550998 85.024552,4.99536695 84.9484791,5.06935683 C84.8724062,5.14334671 84.8287764,5.24526957 84.8273854,5.35224171 L84.8273854,9.88356872 C84.3981171,9.20882938 83.4258244,8.68451659 82.209922,8.68451659 C79.9047512,8.68451659 77.7669951,10.5375972 77.7669951,13.4970758 C77.7669951,16.4402038 79.9229951,18.3270758 82.2464098,18.3270758 C83.4440683,18.3270758 84.347678,17.8038531 84.8456293,17.0920521 L84.8456293,17.6719573 C84.8462153,17.8886135 85.0186714,18.0642683 85.2319707,18.0654645 L87.093922,18.0654645 C87.19747,18.0681898 87.2975771,18.027607 87.3708211,17.9532111 C87.4440652,17.8788151 87.4840198,17.7771338 87.4813366,17.6719573 L87.4813366,5.3544218 C87.4846209,5.24887268 87.4449321,5.14661465 87.3716198,5.07173689 C87.2983075,4.99685913 87.1978535,4.95598185 87.093922,4.9587346 L87.093922,4.9587346 Z M82.7626049,15.8374076 C81.5348976,15.8374076 80.6162634,14.8650853 80.6162634,13.5156066 C80.6162634,12.166128 81.5381171,11.1938057 82.7626049,11.1938057 C83.9870927,11.1938057 84.9089463,12.166128 84.9089463,13.5156066 C84.9089463,14.8650853 83.9913854,15.8374076 82.7626049,15.8374076 Z M97.5433854,4.9587346 L95.6846537,4.9587346 C95.5792751,4.95551146 95.4770233,4.99533518 95.4007809,5.06929375 C95.3245385,5.14325232 95.2806709,5.24517098 95.2789951,5.35224171 L95.2789951,9.88356872 C94.8550927,9.20882938 93.8774341,8.68451659 92.6615317,8.68451659 C90.356361,8.68451659 88.2186049,10.5375972 88.2186049,13.4970758 C88.2186049,16.4402038 90.375678,18.3270758 92.6980195,18.3270758 C93.8967512,18.3270758 94.7992878,17.8038531 95.297239,17.0920521 L95.297239,17.6719573 C95.298412,17.8887899 95.4711782,18.064273 95.6846537,18.0654645 L97.5433854,18.0654645 C97.6468403,18.0682035 97.7468477,18.0275883 97.8199247,17.953156 C97.8930016,17.8787236 97.9327104,17.7770312 97.9297268,17.6719573 L97.9297268,5.3544218 C97.9333139,5.24897583 97.8938721,5.14670566 97.8207265,5.07179068 C97.747581,4.9968757 97.647225,4.95596631 97.5433854,4.9587346 L97.5433854,4.9587346 Z M93.2120683,15.8374076 C91.9832878,15.8374076 91.0657268,14.8650853 91.0657268,13.5156066 C91.0657268,12.166128 91.9875805,11.1938057 93.2120683,11.1938057 C94.4365561,11.1938057 95.3584098,12.166128 95.3584098,13.5156066 C95.3584098,14.8650853 94.4429951,15.8374076 93.2152878,15.8374076 L93.2120683,15.8374076 Z M107.738507,9.58489573 L104.960068,19.2634265 C104.423483,20.9857014 103.226898,22.0157962 101.364946,22.0157962 C100.518215,22.0157962 99.747678,21.8402986 99.1434829,21.4893033 C98.7914829,21.2854645 98.4995805,21.0990664 98.4995805,20.8003934 C98.4995805,20.6150853 98.5586049,20.5191611 98.665922,20.3458436 L99.2175317,19.5065071 C99.3731415,19.2721469 99.4879707,19.1958436 99.6553854,19.1958436 C99.7880496,19.1991556 99.9163759,19.2445093 100.02241,19.3255592 C100.369044,19.5533791 100.690995,19.7495877 101.181434,19.7495877 C101.754507,19.7495877 102.192361,19.5631896 102.428459,18.8699194 L102.666702,18.0665545 L101.54202,18.0665545 C101.304403,18.0742858 101.095112,17.9088929 101.044068,17.6730474 L98.5575317,9.58489573 C98.465239,9.2666019 98.5500195,8.94830466 99.0104098,8.94830466 L100.968946,8.94830466 C101.208263,8.94830466 101.375678,9.03115166 101.480849,9.37887678 L103.317044,15.89191 L105.034117,9.37887678 C105.088849,9.15432701 105.236946,8.94830466 105.532068,8.94830466 L107.389727,8.94830466 C107.755678,8.94721801 107.866215,9.20882938 107.738507,9.58489573 Z M43.5447046,12.4637109 L43.5447046,17.6338057 C43.5464101,17.7476699 43.5026526,17.8573946 43.4233753,17.9379187 C43.344098,18.0184427 43.236072,18.0628884 43.1239707,18.0611043 L41.5871902,18.0611043 C41.4749996,18.0631957 41.3667968,18.0188488 41.2874527,17.9382569 C41.2081086,17.8576651 41.1644483,17.7477606 41.1665073,17.6338057 L41.1665073,16.2766967 C40.1909951,17.5280711 38.4943122,18.3161754 36.5754829,18.3161754 C32.9717756,18.3161754 30.1557756,15.5627156 30.1557756,11.6429052 C30.1557756,7.5693981 33.1960683,4.76143602 37.0369463,4.76143602 C39.8722634,4.76143602 42.1388,5.99972986 43.1454341,8.49048815 C43.1736285,8.55630315 43.1892869,8.62694945 43.1915805,8.6986872 C43.1915805,8.81641232 43.1153854,8.90579621 42.8696293,8.99190995 L41.0752878,9.69390047 C40.9670488,9.73948471 40.8457706,9.74143384 40.7361659,9.69935071 C40.6400805,9.64172143 40.5648211,9.55419427 40.5215317,9.44972986 C39.8776293,8.20598578 38.7314829,7.36119905 36.9671902,7.36119905 C34.6791902,7.36119905 33.0404585,9.17612796 33.0404585,11.5295403 C33.0404585,13.8110095 34.4355805,15.686981 37.0326537,15.686981 C38.3988,15.686981 39.4880683,15.0329526 39.995678,14.3146114 L38.3751902,14.3146114 C38.263089,14.3163955 38.155063,14.2719498 38.0757857,14.1914258 C37.9965084,14.1109017 37.9527508,14.001177 37.9545073,13.8873128 L37.9545073,12.4822417 C37.9527508,12.3683775 37.9965084,12.2586528 38.0757857,12.1781287 C38.155063,12.0976047 38.263089,12.053159 38.3751902,12.0549431 L43.1239707,12.0549431 C43.2339955,12.0492406 43.3414704,12.0898487 43.421078,12.1672015 C43.5006855,12.2445543 43.5453875,12.351813 43.5447046,12.4637109 L43.5447046,12.4637109 Z M107.788946,7.03309479 L107.788946,6.90773934 C107.788827,6.8989486 107.791881,6.89041774 107.797532,6.88375829 C107.803759,6.87817976 107.811765,6.8750818 107.820068,6.87503791 L108.604556,6.87503791 C108.612917,6.87475003 108.62104,6.8778931 108.627093,6.88375829 C108.632743,6.89041774 108.635798,6.8989486 108.635681,6.90773934 L108.635681,7.03309479 C108.635625,7.04152659 108.632576,7.04965541 108.627093,7.05598578 C108.62104,7.06185098 108.612917,7.06499405 108.604556,7.06470616 L108.31802,7.06470616 L108.31802,7.85063033 C108.317462,7.86845105 108.303369,7.88276559 108.285824,7.88333175 L108.137727,7.88333175 C108.129528,7.88329324 108.121729,7.87972855 108.116263,7.87352133 C108.110096,7.86755491 108.106605,7.85928164 108.106605,7.85063033 L108.106605,7.06470616 L107.820068,7.06470616 C107.811631,7.0653684 107.803331,7.06225124 107.797347,7.05617342 C107.791363,7.05009561 107.788294,7.04166457 107.788946,7.03309479 L107.788946,7.03309479 Z M109.160459,6.90337915 L109.375093,7.40807109 L109.589727,6.90337915 C109.593012,6.89443617 109.599029,6.88679628 109.606898,6.8815782 C109.615833,6.87688003 109.625819,6.874626 109.635873,6.87503791 L109.884849,6.87503791 C109.893088,6.87440957 109.9012,6.87738414 109.907144,6.88321369 C109.913089,6.88904324 109.9163,6.89717317 109.915971,6.90555924 L109.915971,7.85172038 C109.916589,7.86008956 109.913661,7.8683289 109.907922,7.87436665 C109.902182,7.8804044 109.894178,7.88366615 109.885922,7.88333175 L109.74641,7.88333175 C109.738049,7.88361964 109.729926,7.88047657 109.723873,7.87461137 C109.717745,7.8686961 109.714588,7.86027777 109.715288,7.85172038 L109.715288,7.13773934 L109.484556,7.6566019 C109.481199,7.66639722 109.475259,7.67506905 109.467385,7.68167299 C109.458548,7.68663993 109.448487,7.68891088 109.43841,7.68821327 L109.324654,7.68821327 C109.314931,7.68875559 109.305257,7.68648787 109.296751,7.68167299 C109.288552,7.6753795 109.282538,7.6665986 109.27958,7.6566019 L109.049922,7.13773934 L109.049922,7.85172038 C109.050404,7.86005423 109.047431,7.86821272 109.041722,7.87421845 C109.036013,7.88022418 109.02809,7.88352894 109.019873,7.88333175 L108.877141,7.88333175 C108.869111,7.88322662 108.861472,7.87978961 108.855999,7.87381907 C108.850526,7.86784852 108.847696,7.85986408 108.848166,7.85172038 L108.848166,6.90555924 C108.847837,6.89717317 108.851048,6.88904324 108.856992,6.88321369 C108.862936,6.87738414 108.871048,6.87440957 108.879288,6.87503791 L109.120751,6.87503791 C109.130449,6.87476531 109.140054,6.87701676 109.148654,6.8815782 C109.154541,6.8875637 109.158635,6.89512368 109.160459,6.90337915 L109.160459,6.90337915 Z" transform="translate(0 8)"/>
  </g>
</svg>