<svg role="img" viewBox="0 0 145 130" xmlns="http://www.w3.org/2000/svg"><path d="M83.9 75.9H25c-1 0-1.9-.8-1.9-1.9V15.1c0-1 .9-1.9 1.9-1.9h58.9c1 0 1.9.8 1.9 1.9V74c0 1.1-.8 1.9-1.9 1.9" fill="#e0e0e0"></path><path d="M50.1 30.7c0 3.8-3 6.8-6.8 6.8s-6.8-3-6.8-6.8 3-6.8 6.8-6.8c3.7 0 6.8 3 6.8 6.8" fill="#6fda44"></path><path d="M77 34.5c-.5-.5-1.3-.5-1.7 0L53.2 58.3c-.4.4-1 .5-1.5.2L36.9 46.3c-.5-.3-1.1-.2-1.5.1L23.1 58.1v17.1c0 .4.4.8.8.8l61.1-.2c.5 0 .8-.4.8-.8l-.1-31.7-8.7-8.8zM74.4 3C72.8 1.4 70.6.5 68.3.5s-4.4.9-6.1 2.5c-1.6 1.6-2.5 3.8-2.5 6.1v4.2H62V9.1c0-1.7.7-3.2 1.8-4.4 1.2-1.2 2.8-1.8 4.4-1.8 1.7 0 3.2.7 4.4 1.8 1.2 1.2 1.8 2.8 1.8 4.4v17.5c0 .8-.3 1.5-.8 2s-1.3.8-2 .8c-.8 0-1.5-.3-2-.8s-.8-1.2-.8-2V10.2c0-.6-.5-1.2-1.2-1.2-.6 0-1.2.5-1.2 1.2v16.4c0 1.4.5 2.7 1.5 3.6 1 1 2.3 1.5 3.6 1.5.5 0 .9-.1 1.4-.2.8-.2 1.6-.7 2.3-1.3 1-1 1.5-2.3 1.5-3.6V9.1c.2-2.3-.7-4.5-2.3-6.1z" fill="#b2b2b2"></path><path d="M121.4 64.5H43.6c-.3 0-.5.2-.5.5v50c0 .3.2.5.5.5h48.1v12.8c0 1.1 1.3 1.6 2.1.9l15.3-13.7h12.3c.3 0 .5-.2.5-.5V65c0-.3-.3-.5-.5-.5z" fill="#1d4354"></path><g fill="#fff"><circle cx="67" cy="89.9" r="3.2"></circle><circle cx="82.5" cy="89.9" r="3.2"></circle><circle cx="97.9" cy="89.9" r="3.2"></circle></g></svg>