<svg role="img" viewBox="0 0 145 130" xmlns="http://www.w3.org/2000/svg"><path d="M145 18.601l-71.604-8.207-.909 7.944-.907-7.916L0 18.622l12.049 105.185 60.44-6.923 60.461 6.925z" fill="#e0e0e0"></path><path d="M28.472 0h88.055v130H28.472z" fill="#1d4354"></path><path d="M46.352 99.789h53.601v16.229H46.352z" fill="#6fda44"></path><path d="M98.925 40.338c0 14.554-11.802 26.361-26.354 26.361-14.56 0-26.36-11.807-26.36-26.361 0-14.552 11.801-26.355 26.36-26.355 14.552 0 26.354 11.804 26.354 26.355" fill="#f9f9f9"></path><path d="M81.664 37.781c0 4.764-3.865 8.633-8.626 8.633-4.769 0-8.629-3.869-8.629-8.633 0-4.763 3.86-8.633 8.629-8.633 4.761 0 8.626 3.87 8.626 8.633m-.971 9.439a12.184 12.184 0 0 1-6.476 2.661c-.396.043-.791.078-1.19.078-.402 0-.798-.035-1.194-.081a12.085 12.085 0 0 1-6.457-2.666A18.452 18.452 0 0 0 55.05 59.997c4.66 4.154 10.781 6.706 17.519 6.706 7.108 0 13.541-2.832 18.285-7.409A18.44 18.44 0 0 0 80.693 47.22" fill="#b2b2b2"></path><path d="M109.936 122.305l-6.063-6.059 5.198-3.309c.128-.121.063-.34-.11-.385l-18.143-6.512a.227.227 0 0 0-.281.271l6.518 18.149c.04.177.262.235.387.106l3.31-5.189 6.056 6.053c.16.162.424.162.584 0l2.545-2.545a.411.411 0 0 0-.001-.58z" fill="#fff"></path><path d="M96.029 80.154H48.971a1.568 1.568 0 1 1 0-3.136H96.03c.867 0 1.566.701 1.566 1.568s-.7 1.568-1.567 1.568zm-3.102 9.319H52.075a1.568 1.568 0 1 1 0-3.135h40.852a1.567 1.567 0 1 1 0 3.135z" fill="#336278"></path></svg>