<svg role="img" viewBox="0 0 145 130" xmlns="http://www.w3.org/2000/svg"><path d="M124.271 128.788c0 .815-.668 1.479-1.48 1.479H20.909a1.483 1.483 0 0 1-1.479-1.479V1.749c0-.815.666-1.48 1.479-1.48H122.79c.813 0 1.479.665 1.479 1.48v127.039h.002z" fill="#1d4354"></path><path d="M36.479 101.504h44.849v13.584H36.479z" fill="#6fda44"></path><path d="M40.733 15.617v7.578c0 1.162-.316 2.057-.951 2.681-.632.624-1.506.942-2.625.942-1.214 0-2.175-.342-2.888-1.028-.712-.685-1.065-1.67-1.065-2.957h2.651c0 1.033.392 1.554 1.175 1.554.68 0 1.02-.4 1.02-1.192v-7.578h2.683zm10.279.557a5.306 5.306 0 0 1 2.014 2.024c.495.865.738 1.837.738 2.928 0 1.083-.245 2.066-.747 2.929a5.317 5.317 0 0 1-2.022 2.031 5.624 5.624 0 0 1-2.83.731 5.657 5.657 0 0 1-2.832-.731 5.349 5.349 0 0 1-2.021-2.031c-.497-.863-.747-1.846-.747-2.929 0-1.091.25-2.063.747-2.928a5.38 5.38 0 0 1 2.021-2.024c.852-.484 1.799-.726 2.832-.726 1.043.001 1.995.242 2.847.726zm-4.943 2.621c-.514.568-.772 1.347-.772 2.333 0 .966.258 1.745.772 2.32.523.572 1.22.861 2.096.861.869 0 1.564-.289 2.085-.861.523-.575.786-1.354.786-2.32 0-.977-.261-1.749-.775-2.324-.521-.575-1.216-.863-2.096-.863-.876 0-1.573.286-2.096.854zm17.836 3.178c.392.491.589 1.057.589 1.708 0 .951-.318 1.691-.951 2.225-.632.536-1.539.798-2.724.798h-5.16V15.617h5.037c1.13 0 2.001.247 2.621.74.616.495.923 1.19.923 2.1 0 .671-.176 1.227-.531 1.67a2.46 2.46 0 0 1-1.395.872c.668.157 1.2.477 1.591.974zm-5.558-1.822H60.1c.932 0 1.395-.398 1.395-1.188 0-.796-.474-1.192-1.427-1.192h-1.721v2.38zm3.402 3.156c0-.4-.133-.71-.392-.938-.26-.222-.633-.333-1.112-.333h-1.898v2.494h1.913c.99-.001 1.489-.409 1.489-1.223zm10.744-.493v3.891h-2.681V15.617h4.343c1.315 0 2.319.327 3.01.981.688.652 1.033 1.536 1.033 2.643 0 .69-.155 1.304-.461 1.844s-.767.962-1.37 1.272c-.609.308-1.346.458-2.212.458l-1.662-.001zm2.978-3.573c0-.973-.539-1.455-1.615-1.455h-1.362v2.883h1.362c1.076 0 1.615-.478 1.615-1.428zm12.554-3.067a5.336 5.336 0 0 1 2.015 2.024c.491.865.737 1.837.737 2.928 0 1.083-.246 2.066-.746 2.929a5.269 5.269 0 0 1-2.022 2.031c-.85.484-1.794.731-2.827.731s-1.98-.248-2.832-.731a5.328 5.328 0 0 1-2.021-2.031c-.499-.863-.744-1.846-.744-2.929 0-1.091.245-2.063.744-2.928a5.387 5.387 0 0 1 2.021-2.024c.852-.484 1.799-.726 2.832-.726 1.047.001 1.99.242 2.843.726zm-4.939 2.621c-.518.568-.777 1.347-.777 2.333 0 .966.262 1.745.777 2.32.521.572 1.213.861 2.096.861.865 0 1.563-.289 2.084-.861.521-.575.784-1.354.784-2.32 0-.977-.258-1.749-.776-2.324-.517-.575-1.213-.863-2.092-.863-.883 0-1.577.286-2.096.854zm17.112 6.406c-.296.495-.737.885-1.321 1.175-.576.295-1.279.443-2.105.443-1.244 0-2.271-.306-3.074-.912-.809-.604-1.246-1.455-1.315-2.539h2.851c.047.417.19.745.449.99.256.241.58.357.98.357.345 0 .617-.092.813-.282.195-.187.299-.437.299-.751a.965.965 0 0 0-.274-.706 2.172 2.172 0 0 0-.681-.465 14.379 14.379 0 0 0-1.129-.43 13.905 13.905 0 0 1-1.715-.695 3.254 3.254 0 0 1-1.149-1.005c-.32-.443-.476-1.024-.476-1.734 0-.661.166-1.229.502-1.713.33-.478.795-.848 1.388-1.099.587-.258 1.266-.385 2.032-.385 1.23 0 2.209.291 2.939.878.729.585 1.134 1.388 1.227 2.414H97.54c-.05-.368-.187-.658-.397-.874-.218-.211-.507-.32-.867-.32-.314 0-.568.088-.767.254-.19.164-.289.411-.289.736 0 .262.087.482.259.665.178.184.389.332.654.448.26.118.633.265 1.13.441.707.239 1.288.476 1.738.712.449.237.837.579 1.162 1.028.323.45.483 1.033.483 1.756a3.094 3.094 0 0 1-.448 1.613zm10.297-9.584v2.134h-3.013v8.954h-2.696v-8.954h-2.979v-2.134h8.688zm-72.742 33.57a2.279 2.279 0 0 1-2.279 2.276 2.27 2.27 0 0 1-2.27-2.276 2.273 2.273 0 0 1 2.27-2.272 2.28 2.28 0 0 1 2.279 2.272m60.778 1.514H45.006a1.516 1.516 0 1 1 0-3.032h53.525a1.517 1.517 0 0 1 0 3.032zM37.753 65.333a2.279 2.279 0 0 1-2.279 2.276 2.27 2.27 0 0 1-2.27-2.276 2.273 2.273 0 0 1 2.27-2.272 2.28 2.28 0 0 1 2.279 2.272m60.778 1.517H45.006a1.518 1.518 0 0 1 0-3.034h53.525c.839 0 1.519.68 1.519 1.517s-.68 1.517-1.519 1.517zM37.753 80.24a2.28 2.28 0 0 1-2.279 2.275 2.273 2.273 0 0 1 0-4.546 2.28 2.28 0 0 1 2.279 2.271m60.778 1.518H45.006a1.518 1.518 0 0 1 0-3.036h53.525a1.519 1.519 0 1 1 0 3.036z" fill="#e0e0e0"></path></svg>