<svg data-name="Layer 1" xmlns="http://www.w3.org/2000/svg" viewBox="0 0 145 130" aria-hidden="true" role="img"><circle cx="72.5" cy="65" r="65" fill="var(--illustration-color-1)"></circle><circle cx="100.74" cy="20.71" r="1.75" fill="var(--illustration-color-9)"></circle><path d="M87.81 108.48H57.19a.48.48 0 01-.48-.47v-1.58a.48.48 0 01.48-.47h4.53a2.21 2.21 0 001.32-.42 4.15 4.15 0 001.65-3.31V95h15.62v6.79a4.89 4.89 0 001.3 3.44 2.33 2.33 0 001.67.7h4.53a.48.48 0 01.48.47v1.6a.48.48 0 01-.48.47" fill="var(--illustration-color-14)"></path><rect x="26.5" y="29.06" width="92" height="66" rx="2" fill="var(--illustration-color-4)"></rect><path d="M26.5 87.06h92v6a2 2 0 01-2 2h-88a2 2 0 01-2-2v-6z" fill="var(--illustration-color-12)"></path><rect x="48" y="16.43" width="49" height="83" transform="rotate(90 72.5 57.93)" fill="var(--white)"></rect><path d="M93.71 73.65H50.57a.53.53 0 01-.53-.53V45.57a.53.53 0 01.53-.53h43.14a.53.53 0 01.53.53v27.55a.53.53 0 01-.53.53" fill="var(--illustration-color-13)"></path><polyline points="93.38 45.84 72.19 61.92 50.97 45.81" fill="none" stroke="var(--illustration-color-14)" stroke-linecap="round" stroke-linejoin="round" stroke-width="1.5"></polyline><line x1="51.02" y1="72.84" x2="68.4" y2="60.06" fill="none" stroke="var(--illustration-color-14)" stroke-linecap="round" stroke-miterlimit="10" stroke-width="1.5"></line><line x1="93.42" y1="72.81" x2="76.1" y2="59.98" fill="none" stroke="var(--illustration-color-14)" stroke-linecap="round" stroke-miterlimit="10" stroke-width="1.5"></line><circle cx="93.38" cy="46.96" r="9" fill="var(--white)"></circle><path d="M90.57 13h-5.79a.51.51 0 110-1h5.79a.51.51 0 010 1" fill="var(--illustration-color-10)"></path><path d="M87.68 15.88a.51.51 0 01-.51-.51V9.58a.51.51 0 011 0v5.79a.51.51 0 01-.51.51" fill="var(--illustration-color-10)"></path><circle cx="72.5" cy="90.74" r="2" fill="var(--illustration-color-1)"></circle><rect x="56.5" y="105.7" width="32" height="3" rx="1" fill="var(--white)"></rect><circle cx="93.38" cy="46.96" r="6.5" fill="var(--illustration-color-2)"></circle></svg>