<?xml version="1.0" encoding="UTF-8" standalone="no"?>
<svg
   xmlns:dc="http://purl.org/dc/elements/1.1/"
   xmlns:cc="http://creativecommons.org/ns#"
   xmlns:rdf="http://www.w3.org/1999/02/22-rdf-syntax-ns#"
   xmlns:svg="http://www.w3.org/2000/svg"
   xmlns="http://www.w3.org/2000/svg"
   xmlns:sodipodi="http://sodipodi.sourceforge.net/DTD/sodipodi-0.dtd"
   xmlns:inkscape="http://www.inkscape.org/namespaces/inkscape"
   version="1.1"
   id="svg2"
   xml:space="preserve"
   width="651.1333"
   height="468.06668"
   viewBox="0 0 651.1333 468.06668"
   sodipodi:docname="243.eps"><metadata
     id="metadata8"><rdf:RDF><cc:Work
         rdf:about=""><dc:format>image/svg+xml</dc:format><dc:type
           rdf:resource="http://purl.org/dc/dcmitype/StillImage" /></cc:Work></rdf:RDF></metadata><defs
     id="defs6" /><sodipodi:namedview
     pagecolor="#ffffff"
     bordercolor="#666666"
     borderopacity="1"
     objecttolerance="10"
     gridtolerance="10"
     guidetolerance="10"
     inkscape:pageopacity="0"
     inkscape:pageshadow="2"
     inkscape:window-width="640"
     inkscape:window-height="480"
     id="namedview4" /><g
     id="g10"
     inkscape:groupmode="layer"
     inkscape:label="ink_ext_XXXXXX"
     transform="matrix(1.3333333,0,0,-1.3333333,0,468.06667)"><g
       id="g12"
       transform="scale(0.1)"><path
         d="M 0,0 H 4883.51 V 3510.55 H 0 Z"
         style="fill:#ffffff;fill-opacity:1;fill-rule:nonzero;stroke:none"
         id="path14" /><path
         d="M 1192,2668.21 H 698.691 v 513.52 H 1192 v -513.52"
         style="fill:#ededed;fill-opacity:1;fill-rule:nonzero;stroke:none"
         id="path16" /><path
         d="M 1740.82,2668.21 H 1247.5 v 513.52 h 493.32 v -513.52"
         style="fill:#ededed;fill-opacity:1;fill-rule:nonzero;stroke:none"
         id="path18" /><path
         d="m 2289.62,2668.21 h -493.31 v 513.52 h 493.31 v -513.52"
         style="fill:#ededed;fill-opacity:1;fill-rule:nonzero;stroke:none"
         id="path20" /><path
         d="m 2838.43,2668.21 h -493.31 v 513.52 h 493.31 v -513.52"
         style="fill:#ededed;fill-opacity:1;fill-rule:nonzero;stroke:none"
         id="path22" /><path
         d="M 1192,2108.61 H 698.691 v 513.52 H 1192 v -513.52"
         style="fill:#ededed;fill-opacity:1;fill-rule:nonzero;stroke:none"
         id="path24" /><path
         d="m 1247.5,2108.61 h 493.32 v 513.523 H 1247.5 Z"
         style="fill:#ededed;fill-opacity:1;fill-rule:nonzero;stroke:none"
         id="path26" /><path
         d="m 2289.62,2108.61 h -493.31 v 513.52 h 493.31 v -513.52"
         style="fill:#ededed;fill-opacity:1;fill-rule:nonzero;stroke:none"
         id="path28" /><path
         d="m 2838.43,2108.61 h -493.31 v 513.52 h 493.31 v -513.52"
         style="fill:#ededed;fill-opacity:1;fill-rule:nonzero;stroke:none"
         id="path30" /><path
         d="M 1192,1549.01 H 698.691 v 513.52 H 1192 v -513.52"
         style="fill:#ededed;fill-opacity:1;fill-rule:nonzero;stroke:none"
         id="path32" /><path
         d="m 1247.5,1549.01 h 493.32 v 513.52 H 1247.5 Z"
         style="fill:#ededed;fill-opacity:1;fill-rule:nonzero;stroke:none"
         id="path34" /><path
         d="m 2289.62,1549.01 h -493.31 v 513.52 h 493.31 v -513.52"
         style="fill:#ededed;fill-opacity:1;fill-rule:nonzero;stroke:none"
         id="path36" /><path
         d="m 2838.43,1549.01 h -493.31 v 513.52 h 493.31 v -513.52"
         style="fill:#ededed;fill-opacity:1;fill-rule:nonzero;stroke:none"
         id="path38" /><path
         d="m 2132.21,1577.22 c -0.26,-76.88 -5.97,-145.55 126.51,-139.4 h 7.07 v -41.98 h -329.38 l -1.26,78.69 197.06,102.69"
         style="fill:#96cae0;fill-opacity:1;fill-rule:nonzero;stroke:none"
         id="path40" /><path
         d="m 1960.21,1437.82 h -305.79 v -31.48 h 305.79 v 31.48"
         style="fill:#6fda44;fill-opacity:1;fill-rule:nonzero;stroke:none"
         id="path42" /><path
         d="m 2099.33,1577.22 h -295.78 c 5.21,-71.76 -4.78,-134.24 -108.57,-139.4 h 265.23 c 132.49,-6.15 144.79,61.14 139.12,139.4"
         style="fill:#dbeff8;fill-opacity:1;fill-rule:nonzero;stroke:none"
         id="path44" /><path
         d="m 2420.17,1535.94 h -919.46 c -19.19,0 -34.75,15.56 -34.75,34.76 v 717.1 c 0,19.2 15.56,34.76 34.75,34.76 h 919.46 c 19.19,0 34.76,-15.56 34.76,-34.76 v -717.1 c 0,-19.2 -15.57,-34.76 -34.76,-34.76"
         style="fill:#96cae0;fill-opacity:1;fill-rule:nonzero;stroke:none"
         id="path46" /><path
         d="m 2375.94,1535.94 h -919.46 c -19.19,0 -34.75,15.56 -34.75,34.76 v 717.1 c 0,19.2 15.56,34.76 34.75,34.76 h 919.46 c 19.2,0 34.76,-15.56 34.76,-34.76 v -717.1 c 0,-19.2 -15.56,-34.76 -34.76,-34.76"
         style="fill:#6fda44;fill-opacity:1;fill-rule:nonzero;stroke:none"
         id="path48" /><path
         d="m 2328.94,1656.63 h -825.45 c -15.1,0 -27.34,12.24 -27.34,27.34 v 567.96 c 0,15.1 12.24,27.34 27.34,27.34 h 825.45 c 15.09,0 27.33,-12.24 27.33,-27.34 v -567.96 c 0,-15.1 -12.24,-27.34 -27.33,-27.34"
         style="fill:#083a60;fill-opacity:1;fill-rule:nonzero;stroke:none"
         id="path50" /><path
         d="m 1504.2,1684.68 h 824.031 v 566.539 H 1504.2 Z"
         style="fill:#094456;fill-opacity:1;fill-rule:nonzero;stroke:none"
         id="path52" /><path
         d="m 1879.49,1595.31 c 0,13.51 10.96,24.48 24.48,24.48 13.53,0 24.48,-10.97 24.48,-24.48 0,-13.52 -10.95,-24.49 -24.48,-24.49 -13.52,0 -24.48,10.97 -24.48,24.49"
         style="fill:#78b7ce;fill-opacity:1;fill-rule:nonzero;stroke:none"
         id="path54" /><path
         d="m 1583.45,1684.68 v 20.07 h 665.53 v -20.07 h -665.53"
         style="fill:#a6e4f4;fill-opacity:1;fill-rule:nonzero;stroke:none"
         id="path56" /><path
         d="m 1504.2,2215.65 h 824.031 v 35.5703 H 1504.2 Z"
         style="fill:#a6e4f4;fill-opacity:1;fill-rule:nonzero;stroke:none"
         id="path58" /><path
         d="m 1813.87,1719.56 h -194.4 c -10.21,0 -18.48,8.28 -18.48,18.48 v 326.66 c 0,10.21 8.27,18.48 18.48,18.48 h 194.4 c 10.2,0 18.48,-8.27 18.48,-18.48 v -326.66 c 0,-10.2 -8.28,-18.48 -18.48,-18.48"
         style="fill:#083a60;fill-opacity:1;fill-rule:nonzero;stroke:none"
         id="path60" /><path
         d="m 1814.06,2083.18 h -194.79 c -10.1,0 -18.28,-8.18 -18.28,-18.28 v -16.35 h 231.36 v 16.35 c 0,10.1 -8.19,18.28 -18.29,18.28"
         style="fill:#124c82;fill-opacity:1;fill-rule:nonzero;stroke:none"
         id="path62" /><path
         d="m 1618.9,2064.43 c 0,4.13 3.35,7.47 7.48,7.47 4.13,0 7.48,-3.34 7.48,-7.47 0,-4.13 -3.35,-7.48 -7.48,-7.48 -4.13,0 -7.48,3.35 -7.48,7.48"
         style="fill:#dc4e4d;fill-opacity:1;fill-rule:nonzero;stroke:none"
         id="path64" /><path
         d="m 1649.25,2064.43 c 0,4.13 3.35,7.47 7.47,7.47 4.13,0 7.48,-3.34 7.48,-7.47 0,-4.13 -3.35,-7.48 -7.48,-7.48 -4.12,0 -7.47,3.35 -7.47,7.48"
         style="fill:#f5ae99;fill-opacity:1;fill-rule:nonzero;stroke:none"
         id="path66" /><path
         d="m 1679.59,2064.43 c 0,4.13 3.35,7.47 7.48,7.47 4.13,0 7.48,-3.34 7.48,-7.47 0,-4.13 -3.35,-7.48 -7.48,-7.48 -4.13,0 -7.48,3.35 -7.48,7.48"
         style="fill:#e6e7e8;fill-opacity:1;fill-rule:nonzero;stroke:none"
         id="path68" /><path
         d="m 1795.67,2018.34 h -169.35 v 10.25 h 169.35 v -10.25"
         style="fill:#b3c2ce;fill-opacity:1;fill-rule:nonzero;stroke:none"
         id="path70" /><path
         d="m 1712.88,1994.69 h -86.56 v 10.25 h 86.56 v -10.25"
         style="fill:#b3c2ce;fill-opacity:1;fill-rule:nonzero;stroke:none"
         id="path72" /><path
         d="m 1784.41,1971.04 h -158.09 v 10.25 h 158.09 v -10.25"
         style="fill:#b3c2ce;fill-opacity:1;fill-rule:nonzero;stroke:none"
         id="path74" /><path
         d="m 1758.75,1947.4 h -103.27 v 10.24 h 103.27 v -10.24"
         style="fill:#b3c2ce;fill-opacity:1;fill-rule:nonzero;stroke:none"
         id="path76" /><path
         d="M 1783.52,1923.75 H 1655.48 V 1934 h 128.04 v -10.25"
         style="fill:#b3c2ce;fill-opacity:1;fill-rule:nonzero;stroke:none"
         id="path78" /><path
         d="m 1772.17,1900.1 h -116.69 v 10.24 h 116.69 v -10.24"
         style="fill:#b3c2ce;fill-opacity:1;fill-rule:nonzero;stroke:none"
         id="path80" /><path
         d="m 1691.38,1876.45 h -35.9 v 10.25 h 35.9 v -10.25"
         style="fill:#b3c2ce;fill-opacity:1;fill-rule:nonzero;stroke:none"
         id="path82" /><path
         d="m 1773.09,1852.8 h -146.77 v 10.25 h 146.77 v -10.25"
         style="fill:#b3c2ce;fill-opacity:1;fill-rule:nonzero;stroke:none"
         id="path84" /><path
         d="m 1688.88,1829.15 h -62.56 v 10.25 h 62.56 v -10.25"
         style="fill:#b3c2ce;fill-opacity:1;fill-rule:nonzero;stroke:none"
         id="path86" /><path
         d="m 1670.08,1805.51 h -43.76 v 10.25 h 43.76 v -10.25"
         style="fill:#b3c2ce;fill-opacity:1;fill-rule:nonzero;stroke:none"
         id="path88" /><path
         d="m 1785.05,1781.86 h -125.62 v 10.25 h 125.62 v -10.25"
         style="fill:#b3c2ce;fill-opacity:1;fill-rule:nonzero;stroke:none"
         id="path90" /><path
         d="m 1758.75,1758.21 h -99.32 v 10.25 h 99.32 v -10.25"
         style="fill:#b3c2ce;fill-opacity:1;fill-rule:nonzero;stroke:none"
         id="path92" /><path
         d="M 2255.91,1819.24 H 1909.6 c -10.21,0 -18.48,8.27 -18.48,18.48 v 326.66 c 0,10.21 8.27,18.48 18.48,18.48 h 346.31 c 10.21,0 18.48,-8.27 18.48,-18.48 v -326.66 c 0,-10.21 -8.27,-18.48 -18.48,-18.48"
         style="fill:#083a60;fill-opacity:1;fill-rule:nonzero;stroke:none"
         id="path94" /><path
         d="m 2256.1,2182.86 h -346.69 c -10.1,0 -18.29,-8.18 -18.29,-18.28 v -16.35 h 383.27 v 16.35 c 0,10.1 -8.18,18.28 -18.29,18.28"
         style="fill:#124c82;fill-opacity:1;fill-rule:nonzero;stroke:none"
         id="path96" /><path
         d="m 1909.04,2164.1 c 0,4.14 3.34,7.49 7.47,7.49 4.13,0 7.48,-3.35 7.48,-7.49 0,-4.12 -3.35,-7.47 -7.48,-7.47 -4.13,0 -7.47,3.35 -7.47,7.47"
         style="fill:#dc4e4d;fill-opacity:1;fill-rule:nonzero;stroke:none"
         id="path98" /><path
         d="m 1939.38,2164.1 c 0,4.14 3.35,7.49 7.48,7.49 4.13,0 7.48,-3.35 7.48,-7.49 0,-4.12 -3.35,-7.47 -7.48,-7.47 -4.13,0 -7.48,3.35 -7.48,7.47"
         style="fill:#f5ae99;fill-opacity:1;fill-rule:nonzero;stroke:none"
         id="path100" /><path
         d="m 1969.73,2164.1 c 0,4.14 3.35,7.49 7.48,7.49 4.13,0 7.47,-3.35 7.47,-7.49 0,-4.12 -3.34,-7.47 -7.47,-7.47 -4.13,0 -7.48,3.35 -7.48,7.47"
         style="fill:#e6e7e8;fill-opacity:1;fill-rule:nonzero;stroke:none"
         id="path102" /><path
         d="m 2190.56,1900.97 v 148.45 h -112.14 v 42 h -5 v -47 h 112.14 v -143.45 h 5"
         style="fill:#ffffff;fill-opacity:1;fill-rule:nonzero;stroke:none"
         id="path104" /><path
         d="m 1966.28,1900.97 v 143.45 h 112.14 v 47 h -5 v -42 h -112.14 v -148.45 h 5"
         style="fill:#ffffff;fill-opacity:1;fill-rule:nonzero;stroke:none"
         id="path106" /><path
         d="m 2073.42,1891.02 h 5 v 166.559 h -5 z"
         style="fill:#ffffff;fill-opacity:1;fill-rule:nonzero;stroke:none"
         id="path108" /><path
         d="m 2105.29,2066.5 h -58.74 v 58.74 h 58.74 v -58.74"
         style="fill:#b3c2ce;fill-opacity:1;fill-rule:nonzero;stroke:none"
         id="path110" /><path
         d="m 2107.08,1956.46 h -62.3 v 62.3 h 62.3 v -62.3"
         style="fill:#b3c2ce;fill-opacity:1;fill-rule:nonzero;stroke:none"
         id="path112" /><path
         d="m 1999.38,1956.46 h -62.3 v 62.3 h 62.3 v -62.3"
         style="fill:#b3c2ce;fill-opacity:1;fill-rule:nonzero;stroke:none"
         id="path114" /><path
         d="m 2214.76,1956.46 h -62.3 v 62.3 h 62.3 v -62.3"
         style="fill:#b3c2ce;fill-opacity:1;fill-rule:nonzero;stroke:none"
         id="path116" /><path
         d="m 2107.08,1867.14 h -62.3 v 62.3 h 62.3 v -62.3"
         style="fill:#b3c2ce;fill-opacity:1;fill-rule:nonzero;stroke:none"
         id="path118" /><path
         d="m 1999.38,1867.14 h -62.3 v 62.3 h 62.3 v -62.3"
         style="fill:#b3c2ce;fill-opacity:1;fill-rule:nonzero;stroke:none"
         id="path120" /><path
         d="m 2214.76,1867.14 h -62.3 v 62.3 h 62.3 v -62.3"
         style="fill:#b3c2ce;fill-opacity:1;fill-rule:nonzero;stroke:none"
         id="path122" /><path
         d="m 3147.17,1499.33 c 15.86,-82.76 34.53,-164.94 50.56,-247.67 14.75,-76.11 19.79,-154.41 37.08,-229.83 14.26,-62.158 32.07,-133.881 67.42,-187.791 18.69,-28.519 42.63,-53.32 65.52,-78.41 29.32,-32.149 93.33,-80.078 81.71,-127.84 -1.9,-7.82 10.15,-11.148 12.05,-3.32 14.6,59.972 -61.36,113.871 -96.48,152.652 -60.05,66.297 -89.9,139.457 -112.44,224.889 -20.28,76.86 -24.81,157.67 -39.51,235.8 -16.67,88.53 -36.9,176.36 -53.85,264.85 -1.52,7.89 -13.57,4.55 -12.06,-3.33"
         style="fill:#dcecf4;fill-opacity:1;fill-rule:nonzero;stroke:none"
         id="path124" /><path
         d="m 3105.55,1467.44 c 51.78,-186.69 56.73,-379.83 100.47,-567.639 32.49,-139.539 96.37,-274.09 215.51,-359.289 6.56,-4.692 12.81,6.148 6.31,10.789 -132.85,95 -192.42,251.898 -221.25,407.09 -31.85,171.399 -42.17,343.579 -88.99,512.369 -2.14,7.75 -14.21,4.46 -12.05,-3.32"
         style="fill:#dcecf4;fill-opacity:1;fill-rule:nonzero;stroke:none"
         id="path126" /><path
         d="m 3207.3,1445.43 c -67.34,-153.9 -275.87,-159.49 -419.66,-170.51 -128.44,-9.86 -352.7,-10.06 -397.78,145.65 -2.23,7.71 -14.3,4.43 -12.05,-3.32 45.1,-155.79 260.45,-164.35 391.49,-156.12 151.71,9.52 377.55,15.14 448.8,177.99 3.19,7.3 -7.58,13.67 -10.8,6.31"
         style="fill:#dcecf4;fill-opacity:1;fill-rule:nonzero;stroke:none"
         id="path128" /><path
         d="m 3125,950.781 h 543.16 c 18.55,0 33.6,-15.043 33.6,-33.601 V 196.27 c 0,-18.551 -15.05,-33.598 -33.6,-33.598 H 3125 c -18.56,0 -33.6,15.047 -33.6,33.598 v 720.91 c 0,18.558 15.04,33.601 33.6,33.601"
         style="fill:#083a60;fill-opacity:1;fill-rule:nonzero;stroke:none"
         id="path130" /><path
         d="m 3195.88,950.781 h -277.59 c -15.51,0 -28.08,-12.562 -28.08,-28.07 V 190.75 c 0,-15.512 12.57,-28.078 28.08,-28.078 h 277.59 c 15.51,0 28.07,12.566 28.07,28.078 v 731.961 c 0,15.508 -12.56,28.07 -28.07,28.07"
         style="fill:#124c82;fill-opacity:1;fill-rule:nonzero;stroke:none"
         id="path132" /><path
         d="m 2930.14,537.449 h 256.629 V 903.851 H 2930.14 Z"
         style="fill:#0e3f72;fill-opacity:1;fill-rule:nonzero;stroke:none"
         id="path134" /><path
         d="m 3173.14,877.66 h -231.41 v 7.93 h 231.41 v -7.93"
         style="fill:#205f8e;fill-opacity:1;fill-rule:nonzero;stroke:none"
         id="path136" /><path
         d="m 3173.14,853.949 h -231.41 v 7.93 h 231.41 v -7.93"
         style="fill:#205f8e;fill-opacity:1;fill-rule:nonzero;stroke:none"
         id="path138" /><path
         d="m 3173.14,830.238 h -231.41 v 7.93 h 231.41 v -7.93"
         style="fill:#205f8e;fill-opacity:1;fill-rule:nonzero;stroke:none"
         id="path140" /><path
         d="m 3173.14,806.531 h -231.41 v 7.93 h 231.41 v -7.93"
         style="fill:#205f8e;fill-opacity:1;fill-rule:nonzero;stroke:none"
         id="path142" /><path
         d="m 3173.14,782.82 h -231.41 v 7.93 h 231.41 v -7.93"
         style="fill:#205f8e;fill-opacity:1;fill-rule:nonzero;stroke:none"
         id="path144" /><path
         d="m 3173.14,759.102 h -231.41 v 7.918 h 231.41 v -7.918"
         style="fill:#205f8e;fill-opacity:1;fill-rule:nonzero;stroke:none"
         id="path146" /><path
         d="m 3173.14,735.391 h -231.41 v 7.918 h 231.41 v -7.918"
         style="fill:#205f8e;fill-opacity:1;fill-rule:nonzero;stroke:none"
         id="path148" /><path
         d="m 3173.14,711.68 h -231.41 v 7.922 h 231.41 v -7.922"
         style="fill:#205f8e;fill-opacity:1;fill-rule:nonzero;stroke:none"
         id="path150" /><path
         d="m 3173.14,687.969 h -231.41 v 7.922 h 231.41 v -7.922"
         style="fill:#205f8e;fill-opacity:1;fill-rule:nonzero;stroke:none"
         id="path152" /><path
         d="m 3173.14,664.262 h -231.41 v 7.918 h 231.41 v -7.918"
         style="fill:#205f8e;fill-opacity:1;fill-rule:nonzero;stroke:none"
         id="path154" /><path
         d="m 3173.14,640.539 h -231.41 v 7.93 h 231.41 v -7.93"
         style="fill:#205f8e;fill-opacity:1;fill-rule:nonzero;stroke:none"
         id="path156" /><path
         d="m 3173.14,616.828 h -231.41 v 7.934 h 231.41 v -7.934"
         style="fill:#205f8e;fill-opacity:1;fill-rule:nonzero;stroke:none"
         id="path158" /><path
         d="m 3173.14,593.121 h -231.41 v 7.93 h 231.41 v -7.93"
         style="fill:#205f8e;fill-opacity:1;fill-rule:nonzero;stroke:none"
         id="path160" /><path
         d="m 3173.14,569.41 h -231.41 v 7.93 h 231.41 v -7.93"
         style="fill:#205f8e;fill-opacity:1;fill-rule:nonzero;stroke:none"
         id="path162" /><path
         d="m 3175.19,455.461 c 0,-16.742 -11.57,-30.313 -25.83,-30.313 -14.27,0 -25.83,13.571 -25.83,30.313 0,16.75 11.56,30.32 25.83,30.32 14.26,0 25.83,-13.57 25.83,-30.32"
         style="fill:#083a60;fill-opacity:1;fill-rule:nonzero;stroke:none"
         id="path164" /><path
         d="m 3165.11,455.461 c 0,-11.371 -7.05,-20.57 -15.75,-20.57 -8.71,0 -15.76,9.199 -15.76,20.57 0,11.367 7.05,20.59 15.76,20.59 8.7,0 15.75,-9.223 15.75,-20.59"
         style="fill:#dc4e4d;fill-opacity:1;fill-rule:nonzero;stroke:none"
         id="path166" /><path
         d="m 2937.15,202.648 h 247.371 v 61.043 H 2937.15 Z"
         style="fill:#16659f;fill-opacity:1;fill-rule:nonzero;stroke:none"
         id="path168" /><path
         d="m 3184.52,384.801 h -72.1 v 22.359 h 72.1 v -22.359"
         style="fill:#083a60;fill-opacity:1;fill-rule:nonzero;stroke:none"
         id="path170" /><path
         d="m 3184.52,346.211 h -72.1 v 22.367 h 72.1 v -22.367"
         style="fill:#083a60;fill-opacity:1;fill-rule:nonzero;stroke:none"
         id="path172" /><path
         d="m 3184.52,307.641 h -72.1 v 22.347 h 72.1 v -22.347"
         style="fill:#083a60;fill-opacity:1;fill-rule:nonzero;stroke:none"
         id="path174" /><path
         d="m 3184.52,384.801 h -57.77 v 22.359 h 57.77 v -22.359"
         style="fill:#022d47;fill-opacity:1;fill-rule:nonzero;stroke:none"
         id="path176" /><path
         d="m 3184.52,346.211 h -57.77 v 22.367 h 57.77 v -22.367"
         style="fill:#022d47;fill-opacity:1;fill-rule:nonzero;stroke:none"
         id="path178" /><path
         d="m 3184.52,307.641 h -57.77 v 22.347 h 57.77 v -22.347"
         style="fill:#022d47;fill-opacity:1;fill-rule:nonzero;stroke:none"
         id="path180" /><path
         d="m 4200.14,1837.49 h 49.85 c 10.83,0 19.61,8.78 19.61,19.61 v 1039.76 c 0,10.82 -8.78,19.6 -19.61,19.6 h -49.85 c -10.83,0 -19.61,-8.78 -19.61,-19.6 V 1857.1 c 0,-10.83 8.78,-19.61 19.61,-19.61"
         style="fill:#b7e4f7;fill-opacity:1;fill-rule:nonzero;stroke:none"
         id="path182" /><path
         d="M 4216.71,1837.49 H 3239.2 c -10.83,0 -19.61,8.78 -19.61,19.61 v 1039.76 c 0,10.82 8.78,19.6 19.61,19.6 h 977.51 c 10.82,0 19.6,-8.78 19.6,-19.6 V 1857.1 c 0,-10.83 -8.78,-19.61 -19.6,-19.61"
         style="fill:#6fda44ab;fill-opacity:1;fill-rule:nonzero;stroke:none"
         id="path184" /><path
         d="m 3578.27,2563.3 -210.39,15.35 24.46,241.4 192.47,-13.87 -6.54,-242.88"
         style="fill:#c8dfec;fill-opacity:1;fill-rule:nonzero;stroke:none"
         id="path186" /><path
         d="m 3561.98,2581.52 -210.23,18.35 19.63,224.84 210.23,-18.35 -19.63,-224.84"
         style="fill:#fad86a;fill-opacity:1;fill-rule:nonzero;stroke:none"
         id="path188" /><path
         d="m 3545.36,2707.9 -154.45,13.49 1.36,15.59 154.45,-13.48 -1.36,-15.6"
         style="fill:#083a60;fill-opacity:1;fill-rule:nonzero;stroke:none"
         id="path190" /><path
         d="m 3507.04,2677.46 -106.5,9.3 1.36,15.61 106.5,-9.3 -1.36,-15.61"
         style="fill:#083a60;fill-opacity:1;fill-rule:nonzero;stroke:none"
         id="path192" /><path
         d="m 3721.29,2473.54 -38.92,239.49 189.49,36.48 56.62,-236.3 -207.19,-39.67"
         style="fill:#c8dfec;fill-opacity:1;fill-rule:nonzero;stroke:none"
         id="path194" /><path
         d="m 3908.02,2526.59 -207.8,-36.73 -39.3,222.25 207.8,36.74 39.3,-222.26"
         style="fill:#094456;fill-opacity:1;fill-rule:nonzero;stroke:none"
         id="path196" /><path
         d="m 3859.23,2644.36 -152.68,-26.99 -2.72,15.42 152.67,26.99 2.73,-15.42"
         style="fill:#083a60;fill-opacity:1;fill-rule:nonzero;stroke:none"
         id="path198" /><path
         d="m 3846.56,2604.73 -105.27,-18.62 -2.73,15.42 105.28,18.61 2.72,-15.41"
         style="fill:#083a60;fill-opacity:1;fill-rule:nonzero;stroke:none"
         id="path200" /><path
         d="m 3842.15,2570.68 -105.27,-18.61 -2.72,15.42 105.27,18.61 2.72,-15.42"
         style="fill:#083a60;fill-opacity:1;fill-rule:nonzero;stroke:none"
         id="path202" /><path
         d="m 3997.72,2096.82 -210.43,14.9 23.95,241.45 192.5,-13.45 -6.02,-242.9"
         style="fill:#c8dfec;fill-opacity:1;fill-rule:nonzero;stroke:none"
         id="path204" /><path
         d="m 3981.39,2115.01 -210.26,17.9 19.14,224.89 210.26,-17.9 -19.14,-224.89"
         style="fill:#dc4e4d;fill-opacity:1;fill-rule:nonzero;stroke:none"
         id="path206" /><path
         d="m 3968.51,2266.41 -154.48,13.15 1.33,15.61 154.48,-13.16 -1.33,-15.6"
         style="fill:#083a60;fill-opacity:1;fill-rule:nonzero;stroke:none"
         id="path208" /><path
         d="m 3953.7,2235.14 -106.52,9.07 1.33,15.61 106.51,-9.07 -1.32,-15.61"
         style="fill:#083a60;fill-opacity:1;fill-rule:nonzero;stroke:none"
         id="path210" /><path
         d="m 3934.25,2194.06 -106.52,9.06 1.33,15.61 106.52,-9.07 -1.33,-15.6"
         style="fill:#083a60;fill-opacity:1;fill-rule:nonzero;stroke:none"
         id="path212" /><path
         d="m 3292.67,1577.22 c -0.26,-76.88 -5.97,-145.55 126.51,-139.4 h 7.07 v -41.98 h -329.39 l -1.25,78.69 197.06,102.69"
         style="fill:#96cae0;fill-opacity:1;fill-rule:nonzero;stroke:none"
         id="path214" /><path
         d="m 3120.67,1437.82 h -305.79 v -31.48 h 305.79 v 31.48"
         style="fill:#6fda44;fill-opacity:1;fill-rule:nonzero;stroke:none"
         id="path216" /><path
         d="m 3259.79,1577.22 h -295.78 c 5.21,-71.76 -4.78,-134.24 -108.58,-139.4 h 265.24 c 132.48,-6.15 144.79,61.14 139.12,139.4"
         style="fill:#dbeff8;fill-opacity:1;fill-rule:nonzero;stroke:none"
         id="path218" /><path
         d="m 3580.63,1535.94 h -919.46 c -19.19,0 -34.75,15.56 -34.75,34.76 v 717.1 c 0,19.2 15.56,34.76 34.75,34.76 h 919.46 c 19.19,0 34.76,-15.56 34.76,-34.76 v -717.1 c 0,-19.2 -15.57,-34.76 -34.76,-34.76"
         style="fill:#96cae0;fill-opacity:1;fill-rule:nonzero;stroke:none"
         id="path220" /><path
         d="m 3536.4,1535.94 h -919.46 c -19.19,0 -34.75,15.56 -34.75,34.76 v 717.1 c 0,19.2 15.56,34.76 34.75,34.76 h 919.46 c 19.2,0 34.76,-15.56 34.76,-34.76 v -717.1 c 0,-19.2 -15.56,-34.76 -34.76,-34.76"
         style="fill:#6fda44;fill-opacity:1;fill-rule:nonzero;stroke:none"
         id="path222" /><path
         d="m 3487.37,1656.63 h -821.4 c -16.21,0 -29.36,13.15 -29.36,29.36 v 563.92 c 0,16.21 13.15,29.36 29.36,29.36 h 821.4 c 16.22,0 29.36,-13.15 29.36,-29.36 v -563.92 c 0,-16.21 -13.14,-29.36 -29.36,-29.36"
         style="fill:#083a60;fill-opacity:1;fill-rule:nonzero;stroke:none"
         id="path224" /><path
         d="m 2664.66,1684.68 v 566.54 h 824.03 v -566.54 h -824.03"
         style="fill:#094456;fill-opacity:1;fill-rule:nonzero;stroke:none"
         id="path226" /><path
         d="m 2743.91,1684.68 v 20.07 h 665.53 v -20.07 h -665.53"
         style="fill:#a6e4f4;fill-opacity:1;fill-rule:nonzero;stroke:none"
         id="path228" /><path
         d="m 2664.66,2215.65 v 35.57 h 824.03 v -35.57 h -824.03"
         style="fill:#a6e4f4;fill-opacity:1;fill-rule:nonzero;stroke:none"
         id="path230" /><path
         d="m 3039.95,1595.31 c 0,13.51 10.96,24.48 24.48,24.48 13.52,0 24.48,-10.97 24.48,-24.48 0,-13.52 -10.96,-24.49 -24.48,-24.49 -13.52,0 -24.48,10.97 -24.48,24.49"
         style="fill:#78b7ce;fill-opacity:1;fill-rule:nonzero;stroke:none"
         id="path232" /><path
         d="m 3278.58,1812.99 h -524.55 c -10.2,0 -18.48,8.27 -18.48,18.48 v 326.66 c 0,10.21 8.28,18.48 18.48,18.48 h 524.55 c 10.21,0 18.49,-8.27 18.49,-18.48 v -326.66 c 0,-10.21 -8.28,-18.48 -18.49,-18.48"
         style="fill:#ffffff;fill-opacity:1;fill-rule:nonzero;stroke:none"
         id="path234" /><path
         d="m 3278.78,2176.61 h -524.94 c -10.1,0 -18.29,-8.18 -18.29,-18.29 v -16.34 h 561.52 v 16.34 c 0,10.11 -8.19,18.29 -18.29,18.29"
         style="fill:#124c82;fill-opacity:1;fill-rule:nonzero;stroke:none"
         id="path236" /><path
         d="m 2807.89,2157.85 c 0,4.14 3.35,7.48 7.48,7.48 4.13,0 7.47,-3.34 7.47,-7.48 0,-4.13 -3.34,-7.47 -7.47,-7.47 -4.13,0 -7.48,3.34 -7.48,7.47"
         style="fill:#dc4e4d;fill-opacity:1;fill-rule:nonzero;stroke:none"
         id="path238" /><path
         d="m 2783.82,2157.85 c 0,4.14 3.34,7.48 7.47,7.48 4.13,0 7.48,-3.34 7.48,-7.48 0,-4.13 -3.35,-7.47 -7.48,-7.47 -4.13,0 -7.47,3.34 -7.47,7.47"
         style="fill:#f5ae99;fill-opacity:1;fill-rule:nonzero;stroke:none"
         id="path240" /><path
         d="m 2814.16,2157.85 c 0,4.14 3.35,7.48 7.48,7.48 4.13,0 7.48,-3.34 7.48,-7.48 0,-4.13 -3.35,-7.47 -7.48,-7.47 -4.13,0 -7.48,3.34 -7.48,7.47"
         style="fill:#e6e7e8;fill-opacity:1;fill-rule:nonzero;stroke:none"
         id="path242" /><path
         d="m 3377.86,1719.51 h -194.4 c -10.21,0 -18.48,8.28 -18.48,18.48 v 326.66 c 0,10.21 8.27,18.48 18.48,18.48 h 194.4 c 10.21,0 18.48,-8.27 18.48,-18.48 v -326.66 c 0,-10.2 -8.27,-18.48 -18.48,-18.48"
         style="fill:#083a60;fill-opacity:1;fill-rule:nonzero;stroke:none"
         id="path244" /><path
         d="m 3378.05,2083.13 h -194.79 c -10.1,0 -18.28,-8.19 -18.28,-18.28 v -16.35 h 231.36 v 16.35 c 0,10.09 -8.19,18.28 -18.29,18.28"
         style="fill:#124c82;fill-opacity:1;fill-rule:nonzero;stroke:none"
         id="path246" /><path
         d="m 3182.89,2064.37 c 0,4.13 3.35,7.48 7.48,7.48 4.13,0 7.48,-3.35 7.48,-7.48 0,-4.12 -3.35,-7.47 -7.48,-7.47 -4.13,0 -7.48,3.35 -7.48,7.47"
         style="fill:#dc4e4d;fill-opacity:1;fill-rule:nonzero;stroke:none"
         id="path248" /><path
         d="m 3213.24,2064.37 c 0,4.13 3.35,7.48 7.47,7.48 4.13,0 7.48,-3.35 7.48,-7.48 0,-4.12 -3.35,-7.47 -7.48,-7.47 -4.12,0 -7.47,3.35 -7.47,7.47"
         style="fill:#f5ae99;fill-opacity:1;fill-rule:nonzero;stroke:none"
         id="path250" /><path
         d="m 3243.58,2064.37 c 0,4.13 3.35,7.48 7.48,7.48 4.13,0 7.48,-3.35 7.48,-7.48 0,-4.12 -3.35,-7.47 -7.48,-7.47 -4.13,0 -7.48,3.35 -7.48,7.47"
         style="fill:#e6e7e8;fill-opacity:1;fill-rule:nonzero;stroke:none"
         id="path252" /><path
         d="m 3359.66,2018.29 h -169.35 v 10.24 h 169.35 v -10.24"
         style="fill:#b3c2ce;fill-opacity:1;fill-rule:nonzero;stroke:none"
         id="path254" /><path
         d="m 3276.87,1994.64 h -86.56 v 10.25 h 86.56 v -10.25"
         style="fill:#b3c2ce;fill-opacity:1;fill-rule:nonzero;stroke:none"
         id="path256" /><path
         d="m 3348.4,1970.99 h -158.09 v 10.25 h 158.09 v -10.25"
         style="fill:#b3c2ce;fill-opacity:1;fill-rule:nonzero;stroke:none"
         id="path258" /><path
         d="m 3322.74,1947.34 h -103.26 v 10.25 h 103.26 v -10.25"
         style="fill:#b3c2ce;fill-opacity:1;fill-rule:nonzero;stroke:none"
         id="path260" /><path
         d="m 3347.51,1923.69 h -128.03 v 10.25 h 128.03 v -10.25"
         style="fill:#b3c2ce;fill-opacity:1;fill-rule:nonzero;stroke:none"
         id="path262" /><path
         d="m 3336.16,1900.05 h -116.68 v 10.25 h 116.68 v -10.25"
         style="fill:#b3c2ce;fill-opacity:1;fill-rule:nonzero;stroke:none"
         id="path264" /><path
         d="m 3255.37,1876.4 h -35.89 v 10.25 h 35.89 v -10.25"
         style="fill:#b3c2ce;fill-opacity:1;fill-rule:nonzero;stroke:none"
         id="path266" /><path
         d="M 3337.08,1852.75 H 3190.31 V 1863 h 146.77 v -10.25"
         style="fill:#b3c2ce;fill-opacity:1;fill-rule:nonzero;stroke:none"
         id="path268" /><path
         d="m 3252.87,1829.1 h -62.56 v 10.25 h 62.56 v -10.25"
         style="fill:#b3c2ce;fill-opacity:1;fill-rule:nonzero;stroke:none"
         id="path270" /><path
         d="m 3234.07,1805.45 h -43.76 v 10.25 h 43.76 v -10.25"
         style="fill:#b3c2ce;fill-opacity:1;fill-rule:nonzero;stroke:none"
         id="path272" /><path
         d="m 3349.04,1781.8 h -125.62 v 10.25 h 125.62 v -10.25"
         style="fill:#b3c2ce;fill-opacity:1;fill-rule:nonzero;stroke:none"
         id="path274" /><path
         d="m 3322.74,1758.16 h -99.32 v 10.25 h 99.32 v -10.25"
         style="fill:#b3c2ce;fill-opacity:1;fill-rule:nonzero;stroke:none"
         id="path276" /><path
         d="m 2958.18,2104.88 h -196.24 v 11.54 h 196.24 v -11.54"
         style="fill:#f7b126;fill-opacity:1;fill-rule:nonzero;stroke:none"
         id="path278" /><path
         d="m 2834.07,2083.44 h -72.13 v 11.54 h 72.13 v -11.54"
         style="fill:#dc4e4d;fill-opacity:1;fill-rule:nonzero;stroke:none"
         id="path280" /><path
         d="m 3014.55,2083.44 h -190.3 v 11.54 h 190.3 v -11.54"
         style="fill:#b3c2ce;fill-opacity:1;fill-rule:nonzero;stroke:none"
         id="path282" /><path
         d="m 2875.82,2062 h -113.88 v 11.54 h 113.88 V 2062"
         style="fill:#f7b126;fill-opacity:1;fill-rule:nonzero;stroke:none"
         id="path284" /><path
         d="m 2875.82,2062 h 131.83 v 11.54 H 2875.82 V 2062"
         style="fill:#f7b126;fill-opacity:1;fill-rule:nonzero;stroke:none"
         id="path286" /><path
         d="m 2981.78,2040.56 h -219.84 v 11.54 h 219.84 v -11.54"
         style="fill:#b3c2ce;fill-opacity:1;fill-rule:nonzero;stroke:none"
         id="path288" /><path
         d="m 2850.82,2040.56 h -88.88 v 11.54 h 88.88 v -11.54"
         style="fill:#f7b126;fill-opacity:1;fill-rule:nonzero;stroke:none"
         id="path290" /><path
         d="m 2981.78,1990.17 h -219.84 v 11.54 h 219.84 v -11.54"
         style="fill:#b3c2ce;fill-opacity:1;fill-rule:nonzero;stroke:none"
         id="path292" /><path
         d="m 2826.25,1990.17 h -64.31 v 11.54 h 64.31 v -11.54"
         style="fill:#f5ae99;fill-opacity:1;fill-rule:nonzero;stroke:none"
         id="path294" /><path
         d="m 3050.81,1965.25 h -288.87 v 11.54 h 288.87 v -11.54"
         style="fill:#b3c2ce;fill-opacity:1;fill-rule:nonzero;stroke:none"
         id="path296" /><path
         d="m 2918.32,1965.25 h -156.38 v 11.54 h 156.38 v -11.54"
         style="fill:#f7b126;fill-opacity:1;fill-rule:nonzero;stroke:none"
         id="path298" /><path
         d="m 3076.51,1940.32 h -314.57 v 11.54 h 314.57 v -11.54"
         style="fill:#b3c2ce;fill-opacity:1;fill-rule:nonzero;stroke:none"
         id="path300" /><path
         d="m 2850.82,1940.32 h -88.88 v 11.54 h 88.88 v -11.54"
         style="fill:#f7b126;fill-opacity:1;fill-rule:nonzero;stroke:none"
         id="path302" /><path
         d="m 3064.42,1915.39 h -302.48 v 11.55 h 302.48 v -11.55"
         style="fill:#b3c2ce;fill-opacity:1;fill-rule:nonzero;stroke:none"
         id="path304" /><path
         d="m 2871.04,1915.39 h -109.1 v 11.55 h 109.1 v -11.55"
         style="fill:#f7b126;fill-opacity:1;fill-rule:nonzero;stroke:none"
         id="path306" /><path
         d="m 3047.92,1890.47 h -285.98 v 11.54 h 285.98 v -11.54"
         style="fill:#b3c2ce;fill-opacity:1;fill-rule:nonzero;stroke:none"
         id="path308" /><path
         d="m 2850.82,1890.47 h -88.88 v 11.54 h 88.88 v -11.54"
         style="fill:#dc4e4d;fill-opacity:1;fill-rule:nonzero;stroke:none"
         id="path310" /><path
         d="m 3559.09,1563.77 c -22.14,0 -40.14,-15.09 -40.14,-33.65 0,-18.55 18,-33.65 40.14,-33.65 22.13,0 40.14,15.1 40.14,33.65 0,18.56 -18.01,33.65 -40.14,33.65 m 0,-92.94 c -36.27,0 -65.77,26.61 -65.77,59.29 0,32.69 29.5,59.29 65.77,59.29 36.27,0 65.77,-26.6 65.77,-59.29 0,-32.68 -29.5,-59.29 -65.77,-59.29"
         style="fill:#dc4e4d;fill-opacity:1;fill-rule:nonzero;stroke:none"
         id="path312" /><path
         d="m 3378.98,1634.81 v -186.84 c 0,-16.99 13.25,-30.76 29.58,-30.76 h 118.11 c 16.33,0 29.57,13.77 29.57,30.76 v 186.84 h -177.26"
         style="fill:#dc4e4d;fill-opacity:1;fill-rule:nonzero;stroke:none"
         id="path314" /><path
         d="m 3526.77,1417.21 c 16.25,0.06 29.41,13.74 29.47,30.64 -0.04,-21.01 -11.01,-30.6 -29.47,-30.64"
         style="fill:#dc4e4d;fill-opacity:1;fill-rule:nonzero;stroke:none"
         id="path316" /><path
         d="m 3526.67,1417.21 h -41.18 c 16.34,0 29.58,13.77 29.58,30.76 v 186.84 h 41.17 v -92.66 -6.21 -39.39 -25.66 -22.92 0 c 0,-0.04 0,-0.08 0,-0.12 -0.06,-16.9 -13.22,-30.58 -29.47,-30.64 -0.03,0 -0.07,0 -0.1,0 v 0"
         style="fill:#be1817;fill-opacity:1;fill-rule:nonzero;stroke:none"
         id="path318" /><path
         d="m 3439.52,1561.75 h -4.94 v 73.06 h 4.94 v -73.06"
         style="fill:#ffffff;fill-opacity:1;fill-rule:nonzero;stroke:none"
         id="path320" /><path
         d="m 3461.21,1515.53 h -48.32 v 48.32 h 48.32 v -48.32"
         style="fill:#fad86a;fill-opacity:1;fill-rule:nonzero;stroke:none"
         id="path322" /><path
         d="m 1505.61,166.719 h -60.85 L 1258.65,1332.66 h 103.91 L 1505.61,166.719"
         style="fill:#f0c95a;fill-opacity:1;fill-rule:nonzero;stroke:none"
         id="path324" /><path
         d="m 1369.84,1273.28 h -101.71 l -9.48,59.38 h 103.91 l 7.28,-59.38"
         style="fill:#e29e20;fill-opacity:1;fill-rule:nonzero;stroke:none"
         id="path326" /><path
         d="m 680.094,166.719 h 60.855 L 927.059,1332.66 H 823.148 L 680.094,166.719"
         style="fill:#f0c95a;fill-opacity:1;fill-rule:nonzero;stroke:none"
         id="path328" /><path
         d="M 917.582,1273.28 H 815.863 l 7.285,59.38 h 103.911 l -9.477,-59.38"
         style="fill:#e29e20;fill-opacity:1;fill-rule:nonzero;stroke:none"
         id="path330" /><path
         d="m 560.922,1332.66 h 3482.53 v 84.5508 H 560.922 Z"
         style="fill:#fad86a;fill-opacity:1;fill-rule:nonzero;stroke:none"
         id="path332" /><path
         d="m 3260.82,1332.66 h 918.059 v 84.5508 H 3260.82 Z"
         style="fill:#f0c95a;fill-opacity:1;fill-rule:nonzero;stroke:none"
         id="path334" /><path
         d="m 4178.88,1332.66 h -78.12 c -10.51,28.75 -21.98,57.03 -34.37,84.55 h 112.49 v -84.55 m -317.51,0 h -600.55 v 84.55 h 632.32 c -12.91,-27.53 -23.48,-55.7 -31.77,-84.55"
         style="fill:#edc04e;fill-opacity:1;fill-rule:nonzero;stroke:none"
         id="path336" /><path
         d="m 4132.61,166.719 h -60.85 L 3885.64,1332.66 h 103.92 L 4132.61,166.719"
         style="fill:#f0c95a;fill-opacity:1;fill-rule:nonzero;stroke:none"
         id="path338" /><path
         d="m 3307.09,166.719 h 60.85 L 3554.06,1332.66 H 3450.15 L 3307.09,166.719"
         style="fill:#f0c95a;fill-opacity:1;fill-rule:nonzero;stroke:none"
         id="path340" /><path
         d="m 3544.58,1273.28 h -101.72 l 7.29,59.38 h 103.91 l -9.48,-59.38"
         style="fill:#e29e20;fill-opacity:1;fill-rule:nonzero;stroke:none"
         id="path342" /><path
         d="m 2616.73,1492.39 h -93.76 c -43.15,0 -78.13,-34.98 -78.13,-78.14 h 250.02 c 0,43.16 -34.98,78.14 -78.13,78.14"
         style="fill:#dbeff8;fill-opacity:1;fill-rule:nonzero;stroke:none"
         id="path344" /><path
         d="m 2326.98,1502.15 c 0,0 130.79,43.16 174.47,49.69 36.38,5.43 129.44,-27.74 154.59,-45.27 24.3,-20.99 36.35,-36.49 45.27,-54.12 2.07,-20.11 -8.6,-19.82 -23.18,-13.25 -23.84,25.97 -47.17,41.62 -69.57,38.65 -28.93,-34.32 -55.99,-53.06 -81.71,-60.73 l -102.69,1.11 -97.18,83.92"
         style="fill:#f5ae99;fill-opacity:1;fill-rule:nonzero;stroke:none"
         id="path346" /><path
         d="m 1655,208.281 c 0,0 10.14,98.34 33.81,116.918 23.67,18.571 251.68,-5.39 251.68,-5.39 0,0 154.07,-18.649 180.28,-23.02 26.2,-4.367 71,-42.617 66.78,-88.508 -4.23,-45.883 -171.6,-14.203 -171.6,-14.203 L 1655,208.281"
         style="fill:#0d4570;fill-opacity:1;fill-rule:nonzero;stroke:none"
         id="path348" /><path
         d="M 2061.38,208.281 H 1655 c 0,0 4.44,43.141 14.32,77.668 h 406.39 c -9.88,-34.527 -14.33,-77.668 -14.33,-77.668"
         style="fill:#083258;fill-opacity:1;fill-rule:nonzero;stroke:none"
         id="path350" /><path
         d="m 2167.35,166.762 h -492.16 c -11.16,0 -20.19,9.039 -20.19,20.199 v 21.32 h 532.55 v -21.32 c 0,-11.16 -9.04,-20.199 -20.2,-20.199"
         style="fill:#e6e7e8;fill-opacity:1;fill-rule:nonzero;stroke:none"
         id="path352" /><path
         d="m 2167.35,166.762 h -492.16 c -11.16,0 -20.19,9.039 -20.19,20.199 v 21.32 h 406.38 v 0 l 126.17,-4.961 v -16.359 c 0,-11.16 -9.04,-20.199 -20.2,-20.199"
         style="fill:#cfd1d3;fill-opacity:1;fill-rule:nonzero;stroke:none"
         id="path354" /><path
         d="m 2061.38,208.281 c 0,0 10.14,98.34 33.81,116.918 23.67,18.571 265.65,-14.738 265.65,-14.738 0,0 140.1,-9.301 166.31,-13.672 26.2,-4.367 71,-42.617 66.78,-88.508 -4.23,-45.883 -171.6,-14.203 -171.6,-14.203 l -360.95,14.203"
         style="fill:#124c82;fill-opacity:1;fill-rule:nonzero;stroke:none"
         id="path356" /><path
         d="m 2573.74,166.762 h -492.17 c -11.15,0 -20.19,9.039 -20.19,20.199 v 21.32 h 532.55 v -21.32 c 0,-11.16 -9.04,-20.199 -20.19,-20.199"
         style="fill:#f1f1f2;fill-opacity:1;fill-rule:nonzero;stroke:none"
         id="path358" /><path
         d="m 2411.4,276.379 c -2.57,0 -4.74,1.98 -4.93,4.582 -1.13,15.391 -19.31,26.34 -54.02,32.551 -2.69,0.488 -4.48,3.058 -4,5.738 0.48,2.691 3.05,4.469 5.74,4.012 40.29,-7.211 60.62,-20.821 62.15,-41.571 0.2,-2.722 -1.85,-5.101 -4.57,-5.3 l -0.37,-0.012"
         style="fill:#ffffff;fill-opacity:1;fill-rule:nonzero;stroke:none"
         id="path360" /><path
         d="m 2444.51,276.379 c -2.57,0 -4.74,1.98 -4.93,4.582 -1.13,15.391 -19.31,26.34 -54.02,32.551 -2.69,0.488 -4.48,3.058 -4,5.738 0.48,2.691 3.05,4.469 5.74,4.012 40.29,-7.211 60.62,-20.821 62.15,-41.571 0.2,-2.722 -1.85,-5.101 -4.57,-5.3 l -0.37,-0.012"
         style="fill:#ffffff;fill-opacity:1;fill-rule:nonzero;stroke:none"
         id="path362" /><path
         d="m 2477.62,276.379 c -2.57,0 -4.74,1.98 -4.93,4.582 -1.13,15.391 -19.31,26.34 -54.02,32.551 -2.69,0.488 -4.48,3.058 -4,5.738 0.48,2.691 3.05,4.469 5.74,4.012 40.29,-7.211 60.62,-20.821 62.15,-41.571 0.2,-2.722 -1.85,-5.101 -4.57,-5.3 l -0.37,-0.012"
         style="fill:#ffffff;fill-opacity:1;fill-rule:nonzero;stroke:none"
         id="path364" /><path
         d="m 2510.73,276.379 c -2.57,0 -4.74,1.98 -4.93,4.582 -1.13,15.391 -19.31,26.34 -54.02,32.551 -2.69,0.488 -4.48,3.058 -4,5.738 0.48,2.691 3.05,4.469 5.74,4.012 40.29,-7.211 60.62,-20.821 62.15,-41.571 0.2,-2.722 -1.85,-5.101 -4.57,-5.3 l -0.37,-0.012"
         style="fill:#ffffff;fill-opacity:1;fill-rule:nonzero;stroke:none"
         id="path366" /><path
         d="m 1351.21,1864.4 h 230.027 v 331.492 H 1351.21 Z"
         style="fill:#f5ae99;fill-opacity:1;fill-rule:nonzero;stroke:none"
         id="path368" /><path
         d="m 1581.24,1864.4 h -56.77 l -1.73,227.19 c 0,0 12.47,-58.28 58.5,-118.33 V 1864.4"
         style="fill:#f29b84;fill-opacity:1;fill-rule:nonzero;stroke:none"
         id="path370" /><path
         d="m 1594.68,1080.81 h 582.62 l 77.27,-63.63 -253.48,-706.871 h -317.67 l 257.13,566.89 -470.7,14.813 124.83,188.798"
         style="fill:#094456;fill-opacity:1;fill-rule:nonzero;stroke:none"
         id="path372" /><path
         d="m 2001.06,1080.81 h 548.82 c 21.85,0 43.03,-7.59 59.9,-21.49 30.69,-25.27 42.22,-67.109 28.79,-104.539 L 2360.69,310.309 H 2089.8 l 257.13,566.89 -470.7,14.813 124.83,188.798"
         style="fill:#094456;fill-opacity:1;fill-rule:nonzero;stroke:none"
         id="path374" /><path
         d="M 1751.01,354.34 H 1596.2 v 383.629 h 154.81 V 354.34"
         style="fill:#96cae0;fill-opacity:1;fill-rule:nonzero;stroke:none"
         id="path376" /><path
         d="m 1751.01,354.34 h -48.66 v 383.629 h 48.66 V 354.34"
         style="fill:#78b7ce;fill-opacity:1;fill-rule:nonzero;stroke:none"
         id="path378" /><path
         d="M 1665.31,354.34 H 1614 v 383.629 h 51.31 V 354.34"
         style="fill:#c9e8f2;fill-opacity:1;fill-rule:nonzero;stroke:none"
         id="path380" /><path
         d="M 1751.01,665.699 H 1596.2 v 72.27 h 154.81 v -72.27"
         style="fill:#78b7ce;fill-opacity:1;fill-rule:nonzero;stroke:none"
         id="path382" /><path
         d="M 1665.31,665.699 H 1614 v 72.27 h 51.31 v -72.27"
         style="fill:#b8dee8;fill-opacity:1;fill-rule:nonzero;stroke:none"
         id="path384" /><path
         d="M 2250.36,703.801 H 1217.99 c -39.99,0 -72.4,32.418 -72.4,72.41 v 34.918 h 1177.17 v -34.918 c 0,-39.992 -32.41,-72.41 -72.4,-72.41"
         style="fill:#78b7ce;fill-opacity:1;fill-rule:nonzero;stroke:none"
         id="path386" /><path
         d="m 1684.14,2278.99 c 0,0 53.84,-97.6 62.26,-114.42 8.41,-16.83 -70.68,-15.15 -75.72,-16.83 -5.05,-1.68 13.46,131.25 13.46,131.25"
         style="fill:#f5ae99;fill-opacity:1;fill-rule:nonzero;stroke:none"
         id="path388" /><path
         d="m 1670.59,2147.73 c -0.54,0 -0.78,1.71 -0.78,4.75 -0.01,23.53 14.33,126.51 14.33,126.51 0,0 53.84,-97.6 62.26,-114.42 0.42,-0.86 0.63,-1.66 0.62,-2.42 -0.05,-14.25 -71.55,-12.81 -76.34,-14.41 -0.03,-0.01 -0.06,-0.01 -0.09,-0.01"
         style="fill:#f29b84;fill-opacity:1;fill-rule:nonzero;stroke:none"
         id="path390" /><path
         d="m 1711.17,2278.34 c 0,-169.34 3.87,-391.09 -129.07,-306.25 -39.55,25.24 -65,87.87 -94.43,149.03 -14.57,30.29 -174.11,-9.88 -174.11,37.75 0,169.33 -76.93,386.53 92.45,386.53 169.38,0 305.16,-97.73 305.16,-267.06"
         style="fill:#f5ae99;fill-opacity:1;fill-rule:nonzero;stroke:none"
         id="path392" /><path
         d="m 1579.97,2361.09 c -23.55,-17.71 34.42,-102.24 0,-147.67 -88.6,131.06 -97.84,35.07 -94.14,-22.15 3.83,-59.49 36.91,-99.68 36.91,-99.68 0,0 -20.3,-31.38 -86.75,-33.23 -37.47,1.68 -128.66,-15.6 -201.02,150.99 -80.94,186.35 1.66,336.05 171.04,336.05 107.59,0 247,-52.87 294.75,-140.86 63.07,-116.21 -33.53,22.18 -120.79,-43.45"
         style="fill:#333333;fill-opacity:1;fill-rule:nonzero;stroke:none"
         id="path394" /><path
         d="m 2435.42,1420.5 c 10.3,61.96 -63.88,112.36 -135.22,83.28 l -184.27,-108.02 -287.65,415.84 c -23.7,34.26 -61.59,56.01 -103.13,59.18 l -145.74,11.14 -230.32,6.19 -151.28,-13.21 c -57.59,-5.02 -99.9,-56.23 -93.99,-113.73 l 93.28,-907.111 673.97,21.461 129.99,205.29 -70.02,261.42 139.11,-179.81 365.27,258.08"
         style="fill:#6fda44;fill-opacity:1;fill-rule:nonzero;stroke:none"
         id="path396" /><path
         d="M 1566.89,1775.72 H 910.453 L 1164.88,892.012 h 711.35 l -239.24,830.938 c -8.99,31.25 -37.58,52.77 -70.1,52.77"
         style="fill:#cdedf9;fill-opacity:1;fill-rule:nonzero;stroke:none"
         id="path398" /><path
         d="M 1407.42,1775.72 H 864.719 c -48.403,0 -83.309,-46.37 -69.914,-92.88 L 1022.49,892.012 h 711.34 l -234.51,814.538 c -11.79,40.96 -49.27,69.17 -91.9,69.17"
         style="fill:#e6f7ff;fill-opacity:1;fill-rule:nonzero;stroke:none"
         id="path400" /><path
         d="m 1503.37,1154.01 h -349.3 l 75.43,-261.998 h 349.31 l -75.44,261.998"
         style="fill:#78b7ce;fill-opacity:1;fill-rule:nonzero;stroke:none"
         id="path402" /><path
         d="m 1477.31,1154.01 h -349.3 l 75.43,-261.998 h 349.31 l -75.44,261.998"
         style="fill:#96cae0;fill-opacity:1;fill-rule:nonzero;stroke:none"
         id="path404" /><path
         d="m 1733.98,892.012 h -711.86 v -88.313 c 0,-23.699 19.21,-42.91 42.91,-42.91 h 668.95 v 131.223"
         style="fill:#e6f7ff;fill-opacity:1;fill-rule:nonzero;stroke:none"
         id="path406" /><path
         d="M 1578.82,892.012 H 1229.46 V 760.789 h 349.36 v 131.223"
         style="fill:#78b7ce;fill-opacity:1;fill-rule:nonzero;stroke:none"
         id="path408" /><path
         d="M 1552.76,892.012 H 1203.4 V 760.789 h 349.36 v 131.223"
         style="fill:#96cae0;fill-opacity:1;fill-rule:nonzero;stroke:none"
         id="path410" /><path
         d="m 1733.71,892.012 h 595.35 c 23.19,0 41.99,-18.801 41.99,-42 v -47.211 c 0,-23.199 -18.8,-42.012 -41.99,-42.012 h -595.35 v 131.223"
         style="fill:#cdedf9;fill-opacity:1;fill-rule:nonzero;stroke:none"
         id="path412" /><path
         d="m 1665.31,285.949 h -492.54 v 62.34 l 492.54,29.762 v -92.102"
         style="fill:#dbeff8;fill-opacity:1;fill-rule:nonzero;stroke:none"
         id="path414" /><path
         d="m 1665.31,285.949 h 492.54 v 62.34 l -492.54,29.762 v -92.102"
         style="fill:#96cae0;fill-opacity:1;fill-rule:nonzero;stroke:none"
         id="path416" /><path
         d="m 1665.31,285.949 h -492.54 v 13.93 l 492.54,6.641 v -20.571"
         style="fill:#bce0f1;fill-opacity:1;fill-rule:nonzero;stroke:none"
         id="path418" /><path
         d="m 2157.85,285.949 h -492.54 v 20.571 l 492.54,-6.641 v -13.93"
         style="fill:#58a0c5;fill-opacity:1;fill-rule:nonzero;stroke:none"
         id="path420" /><path
         d="m 1119.02,229.371 c 0,34.578 28.03,62.609 62.61,62.609 34.57,0 62.6,-28.031 62.6,-62.609 0,-34.57 -28.03,-62.609 -62.6,-62.609 -34.58,0 -62.61,28.039 -62.61,62.609"
         style="fill:#96cae0;fill-opacity:1;fill-rule:nonzero;stroke:none"
         id="path422" /><path
         d="m 1254.23,229.371 c 0,40.098 -32.51,72.609 -72.6,72.609 -40.1,0 -72.61,-32.511 -72.61,-72.609 h 145.21"
         style="fill:#dbeff8;fill-opacity:1;fill-rule:nonzero;stroke:none"
         id="path424" /><path
         d="m 1567.43,229.371 c 0,34.578 28.03,62.609 62.6,62.609 34.58,0 62.61,-28.031 62.61,-62.609 0,-34.57 -28.03,-62.609 -62.61,-62.609 -34.57,0 -62.6,28.039 -62.6,62.609"
         style="fill:#96cae0;fill-opacity:1;fill-rule:nonzero;stroke:none"
         id="path426" /><path
         d="m 1702.64,229.371 c 0,40.098 -32.51,72.609 -72.61,72.609 -40.09,0 -72.6,-32.511 -72.6,-72.609 h 145.21"
         style="fill:#dbeff8;fill-opacity:1;fill-rule:nonzero;stroke:none"
         id="path428" /><path
         d="m 2104.46,229.371 c 0,34.578 28.03,62.609 62.6,62.609 34.58,0 62.61,-28.031 62.61,-62.609 0,-34.57 -28.03,-62.609 -62.61,-62.609 -34.57,0 -62.6,28.039 -62.6,62.609"
         style="fill:#96cae0;fill-opacity:1;fill-rule:nonzero;stroke:none"
         id="path430" /><path
         d="m 2239.66,229.371 c 0,40.098 -32.5,72.609 -72.6,72.609 -40.1,0 -72.6,-32.511 -72.6,-72.609 h 145.2"
         style="fill:#dbeff8;fill-opacity:1;fill-rule:nonzero;stroke:none"
         id="path432" /><path
         d="m 1948.25,1137.44 h -70.13 V 760.789 h 70.13 v 376.651"
         style="fill:#96cae0;fill-opacity:1;fill-rule:nonzero;stroke:none"
         id="path434" /><path
         d="m 2239.65,1137.44 h -70.12 V 760.789 h 70.12 v 376.651"
         style="fill:#96cae0;fill-opacity:1;fill-rule:nonzero;stroke:none"
         id="path436" /><path
         d="m 1948.25,1137.44 h -70.13 V 1097 h 70.13 v 40.44"
         style="fill:#78b7ce;fill-opacity:1;fill-rule:nonzero;stroke:none"
         id="path438" /><path
         d="m 2239.65,1137.44 h -70.12 V 1097 h 70.12 v 40.44"
         style="fill:#78b7ce;fill-opacity:1;fill-rule:nonzero;stroke:none"
         id="path440" /><path
         d="m 1780.84,1128.58 h 110.94 c 23.03,0 41.71,18.67 41.71,41.71 v 31.55 c 0,23.04 -18.68,41.71 -41.71,41.71 h -110.94 c -23.04,0 -41.71,-18.67 -41.71,-41.71 v -31.55 c 0,-23.04 18.67,-41.71 41.71,-41.71"
         style="fill:#6fda44;fill-opacity:1;fill-rule:nonzero;stroke:none"
         id="path442" /><path
         d="m 2389.01,1128.58 h -501.33 c -25.65,0 -46.43,20.78 -46.43,46.42 v 22.12 c 0,25.64 20.78,46.43 46.43,46.43 h 501.33 c 25.64,0 46.43,-20.79 46.43,-46.43 V 1175 c 0,-25.64 -20.79,-46.42 -46.43,-46.42"
         style="fill:#cdedf9;fill-opacity:1;fill-rule:nonzero;stroke:none"
         id="path444" /><path
         d="m 4062.06,539.898 c -260.95,414.34 -303.47,755.562 -74.22,1021.932 211.24,-322.57 269.32,-861.85 74.22,-1021.932"
         style="fill:#c2f2ee;fill-opacity:1;fill-rule:nonzero;stroke:none"
         id="path446" /><path
         d="m 4062.06,539.898 c -7.01,11.122 -13.86,22.204 -20.56,33.223 4.85,37.481 7.19,70.457 7.19,100.297 v 0 c 0,81.492 -17.48,139.492 -49.16,201.492 9.27,195.47 -10.73,613.17 -11.71,633.5 -0.13,2.54 -2.24,4.74 -4.63,4.74 -0.18,0 -0.37,-0.01 -0.56,-0.04 -2.72,-0.13 -4.83,-2.44 -4.7,-5.18 0.24,-4.84 19.73,-411.81 12.37,-615.551 -36.26,66.562 -88.02,140.431 -151.49,254.141 -0.19,6.52 -0.28,13 -0.28,19.46 -0.02,146.41 48.23,278.4 149.31,395.85 122.53,-187.11 193.53,-447.15 193.47,-663.791 -0.04,-156.828 -37.33,-290.918 -119.25,-358.141"
         style="fill:#6fda44ab;fill-opacity:1;fill-rule:nonzero;stroke:none"
         id="path448" /><path
         d="m 3934.15,723.73 c -1.04,0 -2.09,0.329 -2.99,1 -41.5,31.551 -100.36,26.911 -100.98,26.86 -2.69,-0.141 -5.12,1.789 -5.35,4.512 -0.24,2.718 1.79,5.117 4.51,5.347 2.55,0.199 63.32,4.992 107.81,-28.828 2.18,-1.66 2.6,-4.769 0.94,-6.941 -0.97,-1.27 -2.45,-1.95 -3.94,-1.95"
         style="fill:#ffffff;fill-opacity:1;fill-rule:nonzero;stroke:none"
         id="path450" /><path
         d="m 3988.1,798.551 -0.85,0.078 c -2.69,0.461 -4.5,3.019 -4.03,5.711 22.26,128.469 -5.01,697.86 -5.29,703.59 -0.13,2.74 1.98,5.05 4.7,5.18 2.61,0.38 5.05,-1.96 5.19,-4.7 1.13,-23.47 27.6,-576.219 5.15,-705.762 -0.41,-2.398 -2.51,-4.097 -4.87,-4.097"
         style="fill:#ffffff;fill-opacity:1;fill-rule:nonzero;stroke:none"
         id="path452" /><path
         d="m 3989.83,1263.11 c -1.19,0 -2.39,0.43 -3.34,1.3 l -85.26,78.3 c -2.01,1.84 -2.14,4.97 -0.29,6.98 1.85,2.02 4.98,2.14 6.98,0.3 l 85.26,-78.3 c 2.02,-1.84 2.15,-4.97 0.3,-6.98 -0.98,-1.06 -2.31,-1.6 -3.65,-1.6"
         style="fill:#ffffff;fill-opacity:1;fill-rule:nonzero;stroke:none"
         id="path454" /><path
         d="m 3993.32,1085.65 c -1.23,0 -2.46,0.45 -3.41,1.36 l -102.66,97.43 c -1.98,1.87 -2.06,5 -0.18,6.98 1.89,1.99 5.01,2.07 7,0.18 l 102.65,-97.43 c 1.98,-1.87 2.06,-5 0.18,-6.98 -0.97,-1.03 -2.28,-1.54 -3.58,-1.54"
         style="fill:#ffffff;fill-opacity:1;fill-rule:nonzero;stroke:none"
         id="path456" /><path
         d="M 4037.4,544.172 C 3716.66,745.422 3564.48,964.328 3793.73,1230.7 3978.52,870.949 4084.89,853.898 4037.4,544.172"
         style="fill:#c2f2ee;fill-opacity:1;fill-rule:nonzero;stroke:none"
         id="path458" /><path
         d="m 4037.4,544.172 c -169.22,106.18 -291.52,217.277 -335.64,337.656 -7.69,20.992 -13.01,42.274 -15.78,63.852 -1.49,11.582 -2.25,23.23 -2.25,34.988 0.01,78.862 34.1,161.842 110,250.032 155.1,-301.962 254.96,-362.481 254.96,-557.282 0,-29.84 -2.34,-62.816 -7.19,-100.297 -1.21,-9.359 -2.57,-19 -4.1,-28.949"
         style="fill:#6fda44ab;fill-opacity:1;fill-rule:nonzero;stroke:none"
         id="path460" /><path
         d="m 4021.16,567.141 c -1.67,0 -3.3,0.839 -4.23,2.371 -0.69,1.136 -70.08,115.008 -132.75,242.968 -68.25,139.372 -102.86,241.71 -102.86,304.21 0,2.74 2.21,4.94 4.94,4.94 2.74,0 4.95,-2.2 4.95,-4.94 0,-60.97 34.27,-161.862 101.87,-299.862 62.45,-127.527 131.6,-241.039 132.3,-242.168 1.42,-2.32 0.68,-5.379 -1.65,-6.801 l -2.57,-0.718"
         style="fill:#ffffff;fill-opacity:1;fill-rule:nonzero;stroke:none"
         id="path462" /><path
         d="m 3881.96,817.691 c -1.24,0 -2.48,0.469 -3.44,1.387 -46.6,44.934 -114.03,43.82 -114.76,43.852 -2.69,-0.059 -4.99,2.09 -5.06,4.832 -0.07,2.718 2.09,5 4.82,5.066 2.97,-0.019 72.24,1.242 121.87,-46.629 1.97,-1.898 2.03,-5.027 0.13,-7 -0.97,-1.008 -2.27,-1.508 -3.56,-1.508"
         style="fill:#ffffff;fill-opacity:1;fill-rule:nonzero;stroke:none"
         id="path464" /><path
         d="m 3817.59,972.539 c -1.42,0 -2.83,0.609 -3.81,1.781 -24.16,28.99 -78.84,26.06 -79.42,26.07 -2.69,-0.25 -5.07,1.92 -5.23,4.64 -0.17,2.73 1.91,5.07 4.64,5.24 2.44,0.15 60.22,3.25 87.61,-29.61 1.75,-2.101 1.47,-5.219 -0.63,-6.969 -0.93,-0.769 -2.05,-1.152 -3.16,-1.152"
         style="fill:#ffffff;fill-opacity:1;fill-rule:nonzero;stroke:none"
         id="path466" /><path
         d="m 4111.62,541.32 c -260.95,414.348 -87.55,599.99 141.7,866.36 184.79,-359.74 53.4,-706.27 -141.7,-866.36"
         style="fill:#6fda44ab;fill-opacity:1;fill-rule:nonzero;stroke:none"
         id="path468" /><path
         d="m 4104.88,569.191 h -0.21 c -2.73,0.118 -4.85,2.418 -4.74,5.161 0.06,1.386 5.95,141.199 25.73,299.418 26.62,212.94 64.35,356.07 112.16,425.39 1.55,2.26 4.63,2.84 6.88,1.26 2.25,-1.54 2.82,-4.63 1.27,-6.87 -112.08,-162.51 -135.93,-714.05 -136.15,-719.609 -0.11,-2.66 -2.3,-4.75 -4.94,-4.75"
         style="fill:#ffffff;fill-opacity:1;fill-rule:nonzero;stroke:none"
         id="path470" /><path
         d="m 4153.38,1010.82 c -1.26,0 -2.53,0.49 -3.49,1.46 -1.94,1.93 -1.94,5.06 0,6.99 3.44,3.45 84.86,84.53 125.59,96.92 2.63,0.81 5.38,-0.68 6.18,-3.29 0.79,-2.61 -0.68,-5.38 -3.3,-6.17 -38.39,-11.69 -120.65,-93.63 -121.48,-94.45 -0.96,-0.97 -2.23,-1.46 -3.5,-1.46"
         style="fill:#ffffff;fill-opacity:1;fill-rule:nonzero;stroke:none"
         id="path472" /><path
         d="m 4130.77,864.668 c -1.26,0 -2.53,0.48 -3.5,1.453 -1.93,1.93 -1.93,5.059 0,7 2.37,2.359 58.62,58.301 114.38,86.168 2.44,1.231 5.42,0.223 6.64,-2.211 1.22,-2.437 0.23,-5.406 -2.22,-6.637 -54.32,-27.16 -111.23,-83.75 -111.8,-84.32 -0.97,-0.973 -2.23,-1.453 -3.5,-1.453"
         style="fill:#ffffff;fill-opacity:1;fill-rule:nonzero;stroke:none"
         id="path474" /><path
         d="m 4111.63,720.25 c -1.4,0 -2.78,0.59 -3.76,1.73 -1.78,2.079 -1.53,5.211 0.55,6.981 3.92,3.359 96.69,82.461 133.49,98.23 2.48,1.071 5.42,-0.089 6.5,-2.609 1.08,-2.512 -0.09,-5.422 -2.6,-6.492 -35.43,-15.192 -130.01,-95.84 -130.97,-96.649 -0.93,-0.8 -2.07,-1.191 -3.21,-1.191"
         style="fill:#ffffff;fill-opacity:1;fill-rule:nonzero;stroke:none"
         id="path476" /><path
         d="m 3996.79,1183.07 c -1.28,0 -2.56,0.5 -3.53,1.49 -1.91,1.95 -1.88,5.08 0.07,7 l 81.78,80.03 c 1.96,1.89 5.09,1.88 7,-0.07 1.91,-1.96 1.87,-5.09 -0.08,-7.01 l -81.78,-80.02 c -0.96,-0.94 -2.21,-1.42 -3.46,-1.42"
         style="fill:#ffffff;fill-opacity:1;fill-rule:nonzero;stroke:none"
         id="path478" /><path
         d="m 3843.68,906.43 -1.57,0.25 c -2.58,0.871 -3.98,3.672 -3.12,6.261 0.71,2.161 17.82,53.137 37.07,82.899 1.49,2.308 4.56,2.93 6.85,1.469 2.29,-1.489 2.94,-4.547 1.47,-6.848 -18.59,-28.711 -35.84,-80.133 -36.01,-80.652 -0.69,-2.059 -2.62,-3.379 -4.69,-3.379"
         style="fill:#ffffff;fill-opacity:1;fill-rule:nonzero;stroke:none"
         id="path480" /><path
         d="m 4139.47,941.219 c -1.8,0 -3.54,0.992 -4.42,2.711 -0.51,1.011 -51.95,101.68 -83.48,121.59 -2.31,1.47 -3,4.52 -1.54,6.83 1.46,2.32 4.51,2.99 6.83,1.54 33.81,-21.36 84.86,-121.23 87.02,-125.48 1.23,-2.43 0.27,-5.41 -2.17,-6.64 l -2.24,-0.551"
         style="fill:#ffffff;fill-opacity:1;fill-rule:nonzero;stroke:none"
         id="path482" /><path
         d="m 4120.33,795.07 c -1.93,0 -3.76,1.121 -4.55,3.02 -0.47,1.101 -46.9,110.582 -78.68,137.34 -2.08,1.769 -2.35,4.89 -0.59,6.98 1.76,2.078 4.88,2.352 6.97,0.59 33.58,-28.281 79.47,-136.469 81.41,-141.059 1.06,-2.523 -0.12,-5.421 -2.64,-6.492 l -1.92,-0.379"
         style="fill:#ffffff;fill-opacity:1;fill-rule:nonzero;stroke:none"
         id="path484" /><path
         d="m 4167.3,1092.6 c -2.08,0 -4.02,1.32 -4.7,3.41 -0.24,0.73 -24.07,73.09 -51.55,87.64 -2.41,1.27 -3.34,4.27 -2.06,6.68 1.29,2.42 4.27,3.34 6.69,2.07 31,-16.41 55.31,-90.19 56.33,-93.32 0.85,-2.59 -0.57,-5.39 -3.17,-6.24 l -1.54,-0.24"
         style="fill:#ffffff;fill-opacity:1;fill-rule:nonzero;stroke:none"
         id="path486" /><path
         d="m 4256.24,166.762 h -382.91 l -59.36,294.187 h 501.64 l -59.37,-294.187"
         style="fill:#f9e6c5;fill-opacity:1;fill-rule:nonzero;stroke:none"
         id="path488" /><path
         d="m 4236.85,166.762 h -363.52 l -59.36,294.187 h 501.64 -501.64 l 449.17,-49.687 -26.29,-244.5"
         style="fill:#ecc289;fill-opacity:1;fill-rule:nonzero;stroke:none"
         id="path490" /><path
         d="m 4236.85,166.73 v 0.032 h 19.39 l 59.37,294.187 -59.37,-294.187 -19.39,-0.032"
         style="fill:#fdf5e8;fill-opacity:1;fill-rule:nonzero;stroke:none"
         id="path492" /><path
         d="m 4256.24,166.762 h -19.39 l 26.29,244.5 -449.17,49.687 h 501.64 l -59.37,-294.187"
         style="fill:#eaba7d;fill-opacity:1;fill-rule:nonzero;stroke:none"
         id="path494" /><path
         d="m 4320.76,453.418 h -511.94 c -15.42,0 -28.71,10.871 -31.76,26 l -16.37,81.094 c -1.62,8.047 4.52,15.558 12.73,15.558 h 582.74 c 8.21,0 14.35,-7.511 12.73,-15.558 l -16.37,-81.094 c -3.05,-15.129 -16.34,-26 -31.76,-26"
         style="fill:#f9e6c5;fill-opacity:1;fill-rule:nonzero;stroke:none"
         id="path496" /><path
         d="M 4481.41,131.25 H 356.754 v 35.512 H 4481.41 V 131.25"
         style="fill:#78b7ce;fill-opacity:1;fill-rule:nonzero;stroke:none"
         id="path498" /></g></g></svg>
